<svg xmlns="http://www.w3.org/2000/svg" width="519" height="350" viewBox="0 0 519 350" fill="none"><rect x="41" width="438" height="350" rx="10" fill="#F5F9F9"></rect><rect x="1" y="45" width="517" height="114" rx="9" fill="white"></rect><circle cx="69" cy="102" r="32" fill="#1AC596" fill-opacity="0.1"></circle><circle cx="69" cy="102.25" r="27" fill="#1AC596" fill-opacity="0.1"></circle><circle cx="69" cy="103" r="22" fill="#1AC596" fill-opacity="0.1"></circle><path d="M67.32 104.91L64.71 102.3C64.49 102.08 64.22 101.97 63.9 101.97C63.58 101.97 63.3 102.09 63.06 102.33C62.84 102.55 62.73 102.83 62.73 103.17C62.73 103.51 62.84 103.79 63.06 104.01L66.48 107.43C66.7 107.65 66.98 107.76 67.32 107.76C67.66 107.76 67.94 107.65 68.16 107.43L74.97 100.62C75.19 100.4 75.3 100.13 75.3 99.81C75.3 99.49 75.18 99.21 74.94 98.97C74.72 98.75 74.44 98.64 74.1 98.64C73.76 98.64 73.48 98.75 73.26 98.97L67.32 104.91ZM69 114.75C67.34 114.75 65.78 114.435 64.32 113.804C62.86 113.175 61.59 112.32 60.51 111.24C59.43 110.16 58.5752 108.89 57.9456 107.43C57.3152 105.97 57 104.41 57 102.75C57 101.09 57.3152 99.53 57.9456 98.07C58.5752 96.61 59.43 95.34 60.51 94.26C61.59 93.18 62.86 92.3248 64.32 91.6944C65.78 91.0648 67.34 90.75 69 90.75C70.66 90.75 72.22 91.0648 73.68 91.6944C75.14 92.3248 76.41 93.18 77.49 94.26C78.57 95.34 79.4248 96.61 80.0544 98.07C80.6848 99.53 81 101.09 81 102.75C81 104.41 80.6848 105.97 80.0544 107.43C79.4248 108.89 78.57 110.16 77.49 111.24C76.41 112.32 75.14 113.175 73.68 113.804C72.22 114.435 70.66 114.75 69 114.75Z" fill="#09B485"></path><path opacity="0.6" d="M122.233 88.5V78.3182H125.793C126.502 78.3182 127.087 78.4408 127.548 78.6861C128.008 78.928 128.351 79.2545 128.577 79.6655C128.802 80.0732 128.915 80.5256 128.915 81.0227C128.915 81.4602 128.837 81.8215 128.681 82.1065C128.529 82.3916 128.326 82.617 128.075 82.7827C127.826 82.9484 127.556 83.071 127.264 83.1506V83.25C127.576 83.2699 127.889 83.3793 128.204 83.5781C128.519 83.777 128.782 84.062 128.994 84.4332C129.206 84.8045 129.312 85.2585 129.312 85.7955C129.312 86.3059 129.196 86.7649 128.964 87.1726C128.732 87.5803 128.366 87.9034 127.866 88.142C127.365 88.3807 126.714 88.5 125.912 88.5H122.233ZM123.466 87.4062H125.912C126.717 87.4062 127.289 87.2505 127.627 86.9389C127.969 86.6241 128.139 86.2429 128.139 85.7955C128.139 85.4508 128.051 85.1326 127.876 84.8409C127.7 84.5459 127.45 84.3106 127.125 84.1349C126.8 83.956 126.416 83.8665 125.972 83.8665H123.466V87.4062ZM123.466 82.7926H125.753C126.124 82.7926 126.459 82.7197 126.757 82.5739C127.059 82.428 127.297 82.2225 127.473 81.9574C127.652 81.6922 127.741 81.3807 127.741 81.0227C127.741 80.5753 127.586 80.1958 127.274 79.8842C126.963 79.5694 126.469 79.4119 125.793 79.4119H123.466V82.7926ZM132.353 78.3182V88.5H131.179V78.3182H132.353ZM139.314 85.3778V80.8636H140.487V88.5H139.314V87.2074H139.235C139.056 87.5952 138.777 87.925 138.399 88.1967C138.021 88.4652 137.544 88.5994 136.968 88.5994C136.49 88.5994 136.066 88.495 135.695 88.2862C135.324 88.0741 135.032 87.7559 134.82 87.3317C134.608 86.9041 134.502 86.3655 134.502 85.7159V80.8636H135.675V85.6364C135.675 86.1932 135.831 86.6373 136.142 86.9688C136.457 87.3002 136.858 87.4659 137.345 87.4659C137.637 87.4659 137.934 87.3913 138.235 87.2422C138.54 87.093 138.795 86.8643 139.001 86.5561C139.21 86.2479 139.314 85.8551 139.314 85.3778ZM145.838 88.6591C145.102 88.6591 144.468 88.4967 143.934 88.1719C143.404 87.8438 142.994 87.3864 142.706 86.7997C142.421 86.2098 142.278 85.5237 142.278 84.7415C142.278 83.9593 142.421 83.2699 142.706 82.6733C142.994 82.0734 143.395 81.6061 143.909 81.2713C144.426 80.9332 145.029 80.7642 145.719 80.7642C146.116 80.7642 146.509 80.8305 146.897 80.9631C147.285 81.0956 147.638 81.3111 147.956 81.6094C148.274 81.9044 148.528 82.2955 148.717 82.7827C148.906 83.2699 149 83.8698 149 84.5824V85.0795H143.114V84.0653H147.807C147.807 83.6345 147.721 83.25 147.548 82.9119C147.379 82.5739 147.137 82.3071 146.822 82.1115C146.511 81.916 146.143 81.8182 145.719 81.8182C145.251 81.8182 144.847 81.9342 144.506 82.1662C144.168 82.3949 143.907 82.6932 143.725 83.0611C143.543 83.429 143.452 83.8234 143.452 84.2443V84.9205C143.452 85.4972 143.551 85.986 143.75 86.3871C143.952 86.7848 144.232 87.0881 144.59 87.2969C144.948 87.5024 145.364 87.6051 145.838 87.6051C146.146 87.6051 146.425 87.562 146.673 87.4759C146.925 87.3864 147.142 87.2538 147.325 87.0781C147.507 86.8991 147.648 86.6771 147.747 86.4119L148.881 86.7301C148.761 87.1146 148.561 87.4527 148.279 87.7443C147.997 88.0327 147.649 88.258 147.235 88.4205C146.821 88.5795 146.355 88.6591 145.838 88.6591ZM149.676 79.4119V78.3182H157.312V79.4119H154.111V88.5H152.878V79.4119H149.676ZM158.263 88.5V80.8636H159.397V82.017H159.476C159.616 81.6392 159.867 81.3326 160.232 81.0973C160.597 80.862 161.008 80.7443 161.465 80.7443C161.551 80.7443 161.659 80.746 161.788 80.7493C161.917 80.7526 162.015 80.7576 162.081 80.7642V81.9574C162.042 81.9474 161.951 81.9325 161.808 81.9126C161.669 81.8894 161.521 81.8778 161.366 81.8778C160.994 81.8778 160.663 81.9557 160.371 82.1115C160.083 82.264 159.854 82.4761 159.685 82.7479C159.519 83.0163 159.437 83.3229 159.437 83.6676V88.5H158.263ZM166.442 88.6591C165.706 88.6591 165.071 88.4967 164.537 88.1719C164.007 87.8438 163.598 87.3864 163.309 86.7997C163.024 86.2098 162.882 85.5237 162.882 84.7415C162.882 83.9593 163.024 83.2699 163.309 82.6733C163.598 82.0734 163.999 81.6061 164.513 81.2713C165.03 80.9332 165.633 80.7642 166.322 80.7642C166.72 80.7642 167.113 80.8305 167.501 80.9631C167.888 81.0956 168.241 81.3111 168.559 81.6094C168.878 81.9044 169.131 82.2955 169.32 82.7827C169.509 83.2699 169.604 83.8698 169.604 84.5824V85.0795H163.717V84.0653H168.41C168.41 83.6345 168.324 83.25 168.152 82.9119C167.983 82.5739 167.741 82.3071 167.426 82.1115C167.114 81.916 166.747 81.8182 166.322 81.8182C165.855 81.8182 165.451 81.9342 165.109 82.1662C164.771 82.3949 164.511 82.6932 164.329 83.0611C164.146 83.429 164.055 83.8234 164.055 84.2443V84.9205C164.055 85.4972 164.155 85.986 164.354 86.3871C164.556 86.7848 164.836 87.0881 165.194 87.2969C165.552 87.5024 165.968 87.6051 166.442 87.6051C166.75 87.6051 167.028 87.562 167.277 87.4759C167.529 87.3864 167.746 87.2538 167.928 87.0781C168.11 86.8991 168.251 86.6771 168.351 86.4119L169.484 86.7301C169.365 87.1146 169.164 87.4527 168.883 87.7443C168.601 88.0327 168.253 88.258 167.839 88.4205C167.424 88.5795 166.959 88.6591 166.442 88.6591ZM174.59 88.6591C173.854 88.6591 173.22 88.4967 172.686 88.1719C172.156 87.8438 171.746 87.3864 171.458 86.7997C171.173 86.2098 171.03 85.5237 171.03 84.7415C171.03 83.9593 171.173 83.2699 171.458 82.6733C171.746 82.0734 172.147 81.6061 172.661 81.2713C173.178 80.9332 173.781 80.7642 174.471 80.7642C174.868 80.7642 175.261 80.8305 175.649 80.9631C176.037 81.0956 176.39 81.3111 176.708 81.6094C177.026 81.9044 177.28 82.2955 177.469 82.7827C177.657 83.2699 177.752 83.8698 177.752 84.5824V85.0795H171.866V84.0653H176.559C176.559 83.6345 176.473 83.25 176.3 82.9119C176.131 82.5739 175.889 82.3071 175.574 82.1115C175.263 81.916 174.895 81.8182 174.471 81.8182C174.003 81.8182 173.599 81.9342 173.258 82.1662C172.92 82.3949 172.659 82.6932 172.477 83.0611C172.295 83.429 172.204 83.8234 172.204 84.2443V84.9205C172.204 85.4972 172.303 85.986 172.502 86.3871C172.704 86.7848 172.984 87.0881 173.342 87.2969C173.7 87.5024 174.116 87.6051 174.59 87.6051C174.898 87.6051 175.177 87.562 175.425 87.4759C175.677 87.3864 175.894 87.2538 176.077 87.0781C176.259 86.8991 176.4 86.6771 176.499 86.4119L177.633 86.7301C177.513 87.1146 177.313 87.4527 177.031 87.7443C176.749 88.0327 176.401 88.258 175.987 88.4205C175.573 88.5795 175.107 88.6591 174.59 88.6591ZM183.633 88.5V78.3182H184.866V87.4062H189.599V88.5H183.633ZM191.349 88.5V80.8636H192.523V88.5H191.349ZM191.946 79.5909C191.717 79.5909 191.52 79.513 191.354 79.3572C191.192 79.2015 191.111 79.0142 191.111 78.7955C191.111 78.5767 191.192 78.3894 191.354 78.2337C191.52 78.0779 191.717 78 191.946 78C192.175 78 192.37 78.0779 192.532 78.2337C192.698 78.3894 192.781 78.5767 192.781 78.7955C192.781 79.0142 192.698 79.2015 192.532 79.3572C192.37 79.513 192.175 79.5909 191.946 79.5909ZM195.845 83.9062V88.5H194.672V80.8636H195.805V82.0568H195.904C196.083 81.669 196.355 81.3575 196.72 81.1222C197.084 80.8835 197.555 80.7642 198.132 80.7642C198.649 80.7642 199.101 80.8703 199.489 81.0824C199.877 81.2912 200.178 81.6094 200.394 82.0369C200.609 82.4612 200.717 82.9981 200.717 83.6477V88.5H199.544V83.7273C199.544 83.1274 199.388 82.66 199.076 82.3253C198.765 81.9872 198.337 81.8182 197.794 81.8182C197.419 81.8182 197.084 81.8994 196.789 82.0618C196.498 82.2242 196.267 82.4612 196.098 82.7727C195.929 83.0843 195.845 83.4621 195.845 83.9062ZM203.955 85.7159L203.935 84.2642H204.173L207.514 80.8636H208.966L205.406 84.4631H205.307L203.955 85.7159ZM202.861 88.5V78.3182H204.034V88.5H202.861ZM207.713 88.5L204.73 84.7216L205.566 83.9062L209.205 88.5H207.713ZM214.573 88.5V78.3182H218.132C218.842 78.3182 219.427 78.4408 219.887 78.6861C220.348 78.928 220.691 79.2545 220.917 79.6655C221.142 80.0732 221.255 80.5256 221.255 81.0227C221.255 81.4602 221.177 81.8215 221.021 82.1065C220.868 82.3916 220.666 82.617 220.414 82.7827C220.166 82.9484 219.896 83.071 219.604 83.1506V83.25C219.916 83.2699 220.229 83.3793 220.544 83.5781C220.859 83.777 221.122 84.062 221.334 84.4332C221.546 84.8045 221.652 85.2585 221.652 85.7955C221.652 86.3059 221.536 86.7649 221.304 87.1726C221.072 87.5803 220.706 87.9034 220.206 88.142C219.705 88.3807 219.054 88.5 218.252 88.5H214.573ZM215.806 87.4062H218.252C219.057 87.4062 219.629 87.2505 219.967 86.9389C220.308 86.6241 220.479 86.2429 220.479 85.7955C220.479 85.4508 220.391 85.1326 220.216 84.8409C220.04 84.5459 219.79 84.3106 219.465 84.1349C219.14 83.956 218.756 83.8665 218.311 83.8665H215.806V87.4062ZM215.806 82.7926H218.093C218.464 82.7926 218.799 82.7197 219.097 82.5739C219.399 82.428 219.637 82.2225 219.813 81.9574C219.992 81.6922 220.081 81.3807 220.081 81.0227C220.081 80.5753 219.926 80.1958 219.614 79.8842C219.302 79.5694 218.809 79.4119 218.132 79.4119H215.806V82.7926ZM228.332 85.3778V80.8636H229.505V88.5H228.332V87.2074H228.252C228.073 87.5952 227.795 87.925 227.417 88.1967C227.039 88.4652 226.562 88.5994 225.985 88.5994C225.508 88.5994 225.084 88.495 224.712 88.2862C224.341 88.0741 224.049 87.7559 223.837 87.3317C223.625 86.9041 223.519 86.3655 223.519 85.7159V80.8636H224.692V85.6364C224.692 86.1932 224.848 86.6373 225.16 86.9688C225.475 87.3002 225.876 87.4659 226.363 87.4659C226.655 87.4659 226.951 87.3913 227.253 87.2422C227.558 87.093 227.813 86.8643 228.018 86.5561C228.227 86.2479 228.332 85.8551 228.332 85.3778ZM231.654 88.5V80.8636H232.827V88.5H231.654ZM232.251 79.5909C232.022 79.5909 231.825 79.513 231.659 79.3572C231.497 79.2015 231.415 79.0142 231.415 78.7955C231.415 78.5767 231.497 78.3894 231.659 78.2337C231.825 78.0779 232.022 78 232.251 78C232.479 78 232.675 78.0779 232.837 78.2337C233.003 78.3894 233.086 78.5767 233.086 78.7955C233.086 79.0142 233.003 79.2015 232.837 79.3572C232.675 79.513 232.479 79.5909 232.251 79.5909ZM236.15 78.3182V88.5H234.976V78.3182H236.15ZM241.182 88.6591C240.546 88.6591 239.984 88.4983 239.497 88.1768C239.009 87.852 238.628 87.3946 238.353 86.8047C238.078 86.2114 237.941 85.5104 237.941 84.7017C237.941 83.8996 238.078 83.2036 238.353 82.6136C238.628 82.0237 239.011 81.5679 239.502 81.2464C239.992 80.925 240.559 80.7642 241.202 80.7642C241.699 80.7642 242.092 80.8471 242.38 81.0128C242.672 81.1752 242.894 81.3608 243.046 81.5696C243.202 81.7751 243.323 81.9441 243.409 82.0767H243.509V78.3182H244.682V88.5H243.548V87.3267H243.409C243.323 87.4659 243.2 87.6416 243.041 87.8537C242.882 88.0625 242.655 88.2498 242.36 88.4155C242.065 88.5779 241.673 88.6591 241.182 88.6591ZM241.341 87.6051C241.812 87.6051 242.209 87.4825 242.534 87.2372C242.859 86.9886 243.106 86.6456 243.275 86.2081C243.444 85.7673 243.529 85.2585 243.529 84.6818C243.529 84.1117 243.446 83.6129 243.28 83.1854C243.114 82.7545 242.869 82.4197 242.544 82.1811C242.219 81.9392 241.818 81.8182 241.341 81.8182C240.844 81.8182 240.43 81.9458 240.098 82.201C239.77 82.4529 239.523 82.7959 239.357 83.2301C239.195 83.661 239.114 84.1449 239.114 84.6818C239.114 85.2254 239.197 85.7192 239.362 86.1634C239.531 86.6042 239.78 86.9555 240.108 87.2173C240.44 87.4759 240.851 87.6051 241.341 87.6051ZM246.994 88.5V80.8636H248.167V88.5H246.994ZM247.59 79.5909C247.362 79.5909 247.164 79.513 246.999 79.3572C246.836 79.2015 246.755 79.0142 246.755 78.7955C246.755 78.5767 246.836 78.3894 246.999 78.2337C247.164 78.0779 247.362 78 247.59 78C247.819 78 248.015 78.0779 248.177 78.2337C248.343 78.3894 248.426 78.5767 248.426 78.7955C248.426 79.0142 248.343 79.2015 248.177 79.3572C248.015 79.513 247.819 79.5909 247.59 79.5909ZM251.489 83.9062V88.5H250.316V80.8636H251.45V82.0568H251.549C251.728 81.669 252 81.3575 252.364 81.1222C252.729 80.8835 253.2 80.7642 253.776 80.7642C254.293 80.7642 254.746 80.8703 255.134 81.0824C255.521 81.2912 255.823 81.6094 256.038 82.0369C256.254 82.4612 256.362 82.9981 256.362 83.6477V88.5H255.188V83.7273C255.188 83.1274 255.032 82.66 254.721 82.3253C254.409 81.9872 253.982 81.8182 253.438 81.8182C253.064 81.8182 252.729 81.8994 252.434 82.0618C252.142 82.2242 251.912 82.4612 251.743 82.7727C251.574 83.0843 251.489 83.4621 251.489 83.9062ZM261.588 91.5227C261.021 91.5227 260.534 91.4498 260.126 91.304C259.719 91.1615 259.379 90.9725 259.107 90.7372C258.839 90.5052 258.625 90.2566 258.466 89.9915L259.4 89.3352C259.506 89.4744 259.641 89.6335 259.803 89.8125C259.965 89.9948 260.188 90.1522 260.469 90.2848C260.754 90.4207 261.127 90.4886 261.588 90.4886C262.204 90.4886 262.713 90.3395 263.114 90.0412C263.515 89.7429 263.716 89.2756 263.716 88.6392V87.0881H263.616C263.53 87.2273 263.407 87.3996 263.248 87.6051C263.093 87.8073 262.867 87.9879 262.572 88.147C262.281 88.3028 261.886 88.3807 261.389 88.3807C260.773 88.3807 260.219 88.2348 259.729 87.9432C259.241 87.6515 258.855 87.2273 258.57 86.6705C258.288 86.1136 258.148 85.4375 258.148 84.642C258.148 83.8598 258.285 83.1787 258.56 82.5987C258.835 82.0154 259.218 81.5646 259.709 81.2464C260.199 80.925 260.766 80.7642 261.409 80.7642C261.906 80.7642 262.3 80.8471 262.592 81.0128C262.887 81.1752 263.113 81.3608 263.268 81.5696C263.427 81.7751 263.55 81.9441 263.636 82.0767H263.756V80.8636H264.889V88.7188C264.889 89.375 264.74 89.9086 264.442 90.3196C264.147 90.7339 263.749 91.0372 263.248 91.2294C262.751 91.425 262.198 91.5227 261.588 91.5227ZM261.548 87.3267C262.019 87.3267 262.416 87.219 262.741 87.0036C263.066 86.7881 263.313 86.4782 263.482 86.0739C263.651 85.6695 263.736 85.1856 263.736 84.6222C263.736 84.072 263.653 83.5864 263.487 83.1655C263.321 82.7446 263.076 82.4148 262.751 82.1761C262.426 81.9375 262.025 81.8182 261.548 81.8182C261.051 81.8182 260.637 81.9441 260.305 82.196C259.977 82.4479 259.73 82.786 259.564 83.2102C259.402 83.6345 259.321 84.1051 259.321 84.6222C259.321 85.1525 259.404 85.6214 259.569 86.0291C259.738 86.4335 259.987 86.7517 260.315 86.9837C260.647 87.2124 261.058 87.3267 261.548 87.3267ZM279.327 81.5H278.094C278.021 81.1454 277.893 80.8338 277.711 80.5653C277.532 80.2969 277.313 80.0715 277.055 79.8892C276.799 79.7036 276.516 79.5644 276.204 79.4716C275.893 79.3788 275.568 79.3324 275.23 79.3324C274.613 79.3324 274.055 79.4882 273.555 79.7997C273.057 80.1113 272.661 80.5703 272.366 81.1768C272.075 81.7834 271.929 82.5275 271.929 83.4091C271.929 84.2907 272.075 85.0348 272.366 85.6413C272.661 86.2479 273.057 86.7069 273.555 87.0185C274.055 87.33 274.613 87.4858 275.23 87.4858C275.568 87.4858 275.893 87.4394 276.204 87.3466C276.516 87.2538 276.799 87.1162 277.055 86.9339C277.313 86.7483 277.532 86.5213 277.711 86.2528C277.893 85.9811 278.021 85.6695 278.094 85.3182H279.327C279.234 85.8385 279.065 86.3042 278.819 86.7152C278.574 87.1262 278.269 87.4759 277.905 87.7642C277.54 88.0492 277.131 88.2663 276.677 88.4155C276.226 88.5646 275.744 88.6392 275.23 88.6392C274.362 88.6392 273.589 88.4271 272.913 88.0028C272.237 87.5786 271.705 86.9754 271.317 86.1932C270.93 85.411 270.736 84.483 270.736 83.4091C270.736 82.3352 270.93 81.4072 271.317 80.625C271.705 79.8428 272.237 79.2396 272.913 78.8153C273.589 78.3911 274.362 78.179 275.23 78.179C275.744 78.179 276.226 78.2536 276.677 78.4027C277.131 78.5518 277.54 78.7706 277.905 79.0589C278.269 79.344 278.574 79.692 278.819 80.103C279.065 80.5107 279.234 80.9763 279.327 81.5ZM283.407 88.679C282.923 88.679 282.484 88.5878 282.089 88.4055C281.695 88.2199 281.382 87.9531 281.15 87.6051C280.918 87.2538 280.802 86.8295 280.802 86.3324C280.802 85.8949 280.888 85.5402 281.06 85.2685C281.233 84.9934 281.463 84.7779 281.751 84.6222C282.04 84.4664 282.358 84.3504 282.706 84.2741C283.057 84.1946 283.41 84.1316 283.765 84.0852C284.229 84.0256 284.605 83.9808 284.893 83.951C285.185 83.9179 285.397 83.8632 285.53 83.7869C285.666 83.7107 285.734 83.5781 285.734 83.3892V83.3494C285.734 82.8589 285.599 82.4777 285.331 82.206C285.066 81.9342 284.663 81.7983 284.123 81.7983C283.563 81.7983 283.124 81.9209 282.805 82.1662C282.487 82.4115 282.263 82.6733 282.134 82.9517L281.021 82.554C281.219 82.09 281.485 81.7287 281.816 81.4702C282.151 81.2083 282.515 81.026 282.91 80.9233C283.308 80.8172 283.699 80.7642 284.083 80.7642C284.328 80.7642 284.61 80.794 284.928 80.8537C285.25 80.91 285.56 81.0277 285.858 81.2067C286.16 81.3857 286.41 81.6558 286.609 82.017C286.808 82.3783 286.907 82.8622 286.907 83.4688V88.5H285.734V87.4659H285.674C285.594 87.6316 285.462 87.8089 285.276 87.9979C285.091 88.1868 284.844 88.3475 284.536 88.4801C284.227 88.6127 283.851 88.679 283.407 88.679ZM283.586 87.625C284.05 87.625 284.441 87.5339 284.759 87.3516C285.081 87.1693 285.323 86.9339 285.485 86.6456C285.651 86.3572 285.734 86.054 285.734 85.7358V84.6619C285.684 84.7216 285.575 84.7763 285.406 84.826C285.24 84.8724 285.048 84.9138 284.829 84.9503C284.613 84.9834 284.403 85.0133 284.197 85.0398C283.995 85.063 283.831 85.0829 283.705 85.0994C283.4 85.1392 283.115 85.2038 282.85 85.2933C282.588 85.3795 282.376 85.5104 282.214 85.6861C282.055 85.8584 281.975 86.0937 281.975 86.392C281.975 86.7997 282.126 87.108 282.428 87.3168C282.732 87.5223 283.119 87.625 283.586 87.625ZM289.048 88.5V80.8636H290.182V82.0568H290.281C290.441 81.6491 290.697 81.3326 291.052 81.1072C291.407 80.8786 291.833 80.7642 292.33 80.7642C292.834 80.7642 293.253 80.8786 293.588 81.1072C293.926 81.3326 294.189 81.6491 294.378 82.0568H294.458C294.653 81.6624 294.946 81.3492 295.338 81.1172C295.729 80.8819 296.198 80.7642 296.744 80.7642C297.427 80.7642 297.986 80.978 298.42 81.4055C298.854 81.8298 299.071 82.491 299.071 83.3892V88.5H297.898V83.3892C297.898 82.8258 297.744 82.4231 297.436 82.1811C297.127 81.9392 296.764 81.8182 296.347 81.8182C295.81 81.8182 295.394 81.9806 295.099 82.3054C294.804 82.6269 294.656 83.0346 294.656 83.5284V88.5H293.463V83.2699C293.463 82.8357 293.322 82.486 293.041 82.2209C292.759 81.9524 292.396 81.8182 291.952 81.8182C291.647 81.8182 291.362 81.8994 291.097 82.0618C290.835 82.2242 290.623 82.4496 290.46 82.7379C290.301 83.023 290.222 83.3527 290.222 83.7273V88.5H289.048ZM301.216 91.3636V80.8636H302.35V82.0767H302.489C302.575 81.9441 302.695 81.7751 302.847 81.5696C303.003 81.3608 303.225 81.1752 303.513 81.0128C303.805 80.8471 304.199 80.7642 304.697 80.7642C305.34 80.7642 305.906 80.925 306.397 81.2464C306.887 81.5679 307.27 82.0237 307.545 82.6136C307.82 83.2036 307.958 83.8996 307.958 84.7017C307.958 85.5104 307.82 86.2114 307.545 86.8047C307.27 87.3946 306.889 87.852 306.402 88.1768C305.915 88.4983 305.353 88.6591 304.716 88.6591C304.226 88.6591 303.833 88.5779 303.538 88.4155C303.243 88.2498 303.016 88.0625 302.857 87.8537C302.698 87.6416 302.575 87.4659 302.489 87.3267H302.39V91.3636H301.216ZM302.37 84.6818C302.37 85.2585 302.454 85.7673 302.623 86.2081C302.792 86.6456 303.039 86.9886 303.364 87.2372C303.689 87.4825 304.087 87.6051 304.557 87.6051C305.048 87.6051 305.457 87.4759 305.785 87.2173C306.117 86.9555 306.365 86.6042 306.531 86.1634C306.7 85.7192 306.785 85.2254 306.785 84.6818C306.785 84.1449 306.702 83.661 306.536 83.2301C306.374 82.7959 306.127 82.4529 305.795 82.201C305.467 81.9458 305.055 81.8182 304.557 81.8182C304.08 81.8182 303.679 81.9392 303.354 82.1811C303.029 82.4197 302.784 82.7545 302.618 83.1854C302.453 83.6129 302.37 84.1117 302.37 84.6818ZM311.995 88.679C311.511 88.679 311.072 88.5878 310.677 88.4055C310.283 88.2199 309.97 87.9531 309.738 87.6051C309.506 87.2538 309.39 86.8295 309.39 86.3324C309.39 85.8949 309.476 85.5402 309.648 85.2685C309.821 84.9934 310.051 84.7779 310.339 84.6222C310.628 84.4664 310.946 84.3504 311.294 84.2741C311.645 84.1946 311.998 84.1316 312.353 84.0852C312.817 84.0256 313.193 83.9808 313.481 83.951C313.773 83.9179 313.985 83.8632 314.118 83.7869C314.254 83.7107 314.322 83.5781 314.322 83.3892V83.3494C314.322 82.8589 314.187 82.4777 313.919 82.206C313.654 81.9342 313.251 81.7983 312.711 81.7983C312.151 81.7983 311.711 81.9209 311.393 82.1662C311.075 82.4115 310.851 82.6733 310.722 82.9517L309.608 82.554C309.807 82.09 310.073 81.7287 310.404 81.4702C310.739 81.2083 311.103 81.026 311.498 80.9233C311.895 80.8172 312.287 80.7642 312.671 80.7642C312.916 80.7642 313.198 80.794 313.516 80.8537C313.838 80.91 314.148 81.0277 314.446 81.2067C314.747 81.3857 314.998 81.6558 315.197 82.017C315.395 82.3783 315.495 82.8622 315.495 83.4688V88.5H314.322V87.4659H314.262C314.182 87.6316 314.05 87.8089 313.864 87.9979C313.679 88.1868 313.432 88.3475 313.123 88.4801C312.815 88.6127 312.439 88.679 311.995 88.679ZM312.174 87.625C312.638 87.625 313.029 87.5339 313.347 87.3516C313.669 87.1693 313.911 86.9339 314.073 86.6456C314.239 86.3572 314.322 86.054 314.322 85.7358V84.6619C314.272 84.7216 314.162 84.7763 313.993 84.826C313.828 84.8724 313.635 84.9138 313.417 84.9503C313.201 84.9834 312.991 85.0133 312.785 85.0398C312.583 85.063 312.419 85.0829 312.293 85.0994C311.988 85.1392 311.703 85.2038 311.438 85.2933C311.176 85.3795 310.964 85.5104 310.802 85.6861C310.643 85.8584 310.563 86.0937 310.563 86.392C310.563 86.7997 310.714 87.108 311.015 87.3168C311.32 87.5223 311.706 87.625 312.174 87.625ZM317.636 88.5V80.8636H318.81V88.5H317.636ZM318.233 79.5909C318.004 79.5909 317.807 79.513 317.641 79.3572C317.479 79.2015 317.398 79.0142 317.398 78.7955C317.398 78.5767 317.479 78.3894 317.641 78.2337C317.807 78.0779 318.004 78 318.233 78C318.462 78 318.657 78.0779 318.82 78.2337C318.985 78.3894 319.068 78.5767 319.068 78.7955C319.068 79.0142 318.985 79.2015 318.82 79.3572C318.657 79.513 318.462 79.5909 318.233 79.5909ZM324.041 91.5227C323.474 91.5227 322.987 91.4498 322.579 91.304C322.172 91.1615 321.832 90.9725 321.56 90.7372C321.292 90.5052 321.078 90.2566 320.919 89.9915L321.854 89.3352C321.96 89.4744 322.094 89.6335 322.256 89.8125C322.419 89.9948 322.641 90.1522 322.922 90.2848C323.207 90.4207 323.58 90.4886 324.041 90.4886C324.657 90.4886 325.166 90.3395 325.567 90.0412C325.968 89.7429 326.169 89.2756 326.169 88.6392V87.0881H326.069C325.983 87.2273 325.861 87.3996 325.702 87.6051C325.546 87.8073 325.32 87.9879 325.025 88.147C324.734 88.3028 324.339 88.3807 323.842 88.3807C323.226 88.3807 322.672 88.2348 322.182 87.9432C321.694 87.6515 321.308 87.2273 321.023 86.6705C320.742 86.1136 320.601 85.4375 320.601 84.642C320.601 83.8598 320.738 83.1787 321.013 82.5987C321.288 82.0154 321.671 81.5646 322.162 81.2464C322.652 80.925 323.219 80.7642 323.862 80.7642C324.359 80.7642 324.754 80.8471 325.045 81.0128C325.34 81.1752 325.566 81.3608 325.721 81.5696C325.881 81.7751 326.003 81.9441 326.089 82.0767H326.209V80.8636H327.342V88.7188C327.342 89.375 327.193 89.9086 326.895 90.3196C326.6 90.7339 326.202 91.0372 325.702 91.2294C325.204 91.425 324.651 91.5227 324.041 91.5227ZM324.001 87.3267C324.472 87.3267 324.87 87.219 325.194 87.0036C325.519 86.7881 325.766 86.4782 325.935 86.0739C326.104 85.6695 326.189 85.1856 326.189 84.6222C326.189 84.072 326.106 83.5864 325.94 83.1655C325.774 82.7446 325.529 82.4148 325.204 82.1761C324.88 81.9375 324.479 81.8182 324.001 81.8182C323.504 81.8182 323.09 81.9441 322.758 82.196C322.43 82.4479 322.183 82.786 322.018 83.2102C321.855 83.6345 321.774 84.1051 321.774 84.6222C321.774 85.1525 321.857 85.6214 322.023 86.0291C322.192 86.4335 322.44 86.7517 322.768 86.9837C323.1 87.2124 323.511 87.3267 324.001 87.3267ZM330.663 83.9062V88.5H329.49V80.8636H330.623V82.0568H330.723C330.902 81.669 331.174 81.3575 331.538 81.1222C331.903 80.8835 332.373 80.7642 332.95 80.7642C333.467 80.7642 333.92 80.8703 334.307 81.0824C334.695 81.2912 334.997 81.6094 335.212 82.0369C335.428 82.4612 335.535 82.9981 335.535 83.6477V88.5H334.362V83.7273C334.362 83.1274 334.206 82.66 333.895 82.3253C333.583 81.9872 333.156 81.8182 332.612 81.8182C332.238 81.8182 331.903 81.8994 331.608 82.0618C331.316 82.2242 331.086 82.4612 330.917 82.7727C330.748 83.0843 330.663 83.4621 330.663 83.9062Z" fill="#20252C"></path><path d="M128.848 122.572C127.344 122.572 126.08 122.348 125.056 121.9C124.048 121.436 123.28 120.788 122.752 119.956C122.24 119.108 121.984 118.108 121.984 116.956H125.056C125.056 117.452 125.184 117.924 125.44 118.372C125.696 118.82 126.096 119.188 126.64 119.476C127.2 119.748 127.936 119.884 128.848 119.884C130.048 119.884 130.96 119.652 131.584 119.188C132.208 118.724 132.52 118.148 132.52 117.46C132.52 116.836 132.248 116.316 131.704 115.9C131.176 115.484 130.352 115.228 129.232 115.132L127.888 115.012C126.24 114.852 124.928 114.356 123.952 113.524C122.976 112.676 122.488 111.476 122.488 109.924C122.488 108.852 122.728 107.948 123.208 107.212C123.704 106.476 124.408 105.924 125.32 105.556C126.248 105.172 127.344 104.98 128.608 104.98C129.92 104.98 131.032 105.196 131.944 105.628C132.872 106.06 133.576 106.684 134.056 107.5C134.552 108.3 134.8 109.276 134.8 110.428H131.728C131.728 109.932 131.608 109.476 131.368 109.06C131.144 108.644 130.8 108.308 130.336 108.052C129.888 107.796 129.312 107.668 128.608 107.668C127.968 107.668 127.424 107.764 126.976 107.956C126.528 108.148 126.184 108.412 125.944 108.748C125.704 109.084 125.584 109.476 125.584 109.924C125.584 110.484 125.784 110.98 126.184 111.412C126.6 111.844 127.264 112.1 128.176 112.18L129.52 112.3C131.36 112.46 132.832 112.972 133.936 113.836C135.056 114.7 135.616 115.908 135.616 117.46C135.616 118.532 135.344 119.452 134.8 120.22C134.272 120.972 133.504 121.556 132.496 121.972C131.488 122.372 130.272 122.572 128.848 122.572ZM127.384 125.596V122.092H130.168V125.596H127.384ZM127.288 106.156V102.652H130.072V106.156H127.288ZM137.545 118.876V115.18L144.409 104.5L146.977 106.252L140.929 115.708L141.217 116.188H151.969V118.876H137.545ZM146.713 122.5V109.948H149.857V122.5H146.713ZM163.539 122.5L159.171 116.404H157.227L162.771 109.468H166.251L161.139 115.876L161.211 114.196L167.307 122.5H163.539ZM154.419 122.5V104.98H157.755V122.5H154.419ZM182.308 122.5V118.636H181.756V114.34C181.756 113.588 181.572 113.028 181.204 112.66C180.836 112.292 180.268 112.108 179.5 112.108C179.1 112.108 178.62 112.116 178.06 112.132C177.5 112.148 176.932 112.172 176.356 112.204C175.796 112.22 175.292 112.244 174.844 112.276V109.444C175.212 109.412 175.628 109.38 176.092 109.348C176.556 109.316 177.028 109.3 177.508 109.3C178.004 109.284 178.468 109.276 178.9 109.276C180.244 109.276 181.356 109.452 182.236 109.804C183.132 110.156 183.804 110.708 184.252 111.46C184.716 112.212 184.948 113.196 184.948 114.412V122.5H182.308ZM178.108 122.836C177.164 122.836 176.332 122.668 175.612 122.332C174.908 121.996 174.356 121.516 173.956 120.892C173.572 120.268 173.38 119.516 173.38 118.636C173.38 117.676 173.612 116.892 174.076 116.284C174.556 115.676 175.22 115.22 176.068 114.916C176.932 114.612 177.94 114.46 179.092 114.46H182.116V116.452H179.044C178.276 116.452 177.684 116.644 177.268 117.028C176.868 117.396 176.668 117.876 176.668 118.468C176.668 119.06 176.868 119.54 177.268 119.908C177.684 120.276 178.276 120.46 179.044 120.46C179.508 120.46 179.932 120.38 180.316 120.22C180.716 120.044 181.044 119.756 181.3 119.356C181.572 118.94 181.724 118.38 181.756 117.676L182.572 118.612C182.492 119.524 182.268 120.292 181.9 120.916C181.548 121.54 181.052 122.02 180.412 122.356C179.788 122.676 179.02 122.836 178.108 122.836ZM190.973 122.5L186.893 109.468H190.325L194.237 122.5H190.973ZM191.957 122.5V119.764H195.485V122.5H191.957ZM193.277 122.5L196.637 109.468H199.853L196.325 122.5H193.277ZM207.923 122.956C206.803 122.956 205.819 122.764 204.971 122.38C204.139 121.996 203.443 121.484 202.883 120.844C202.339 120.188 201.923 119.46 201.635 118.66C201.363 117.86 201.227 117.044 201.227 116.212V115.756C201.227 114.892 201.363 114.06 201.635 113.26C201.923 112.444 202.339 111.724 202.883 111.1C203.443 110.46 204.131 109.956 204.947 109.588C205.763 109.204 206.707 109.012 207.779 109.012C209.187 109.012 210.363 109.324 211.307 109.948C212.267 110.556 212.987 111.364 213.467 112.372C213.947 113.364 214.187 114.436 214.187 115.588V116.788H202.643V114.748H212.099L211.067 115.756C211.067 114.924 210.947 114.212 210.707 113.62C210.467 113.028 210.099 112.572 209.603 112.252C209.123 111.932 208.515 111.772 207.779 111.772C207.043 111.772 206.419 111.94 205.907 112.276C205.395 112.612 205.003 113.1 204.731 113.74C204.475 114.364 204.347 115.116 204.347 115.996C204.347 116.812 204.475 117.54 204.731 118.18C204.987 118.804 205.379 119.3 205.907 119.668C206.435 120.02 207.107 120.196 207.923 120.196C208.739 120.196 209.403 120.036 209.915 119.716C210.427 119.38 210.755 118.972 210.899 118.492H213.971C213.779 119.388 213.411 120.172 212.867 120.844C212.323 121.516 211.627 122.036 210.779 122.404C209.947 122.772 208.995 122.956 207.923 122.956ZM216.974 122.5V109.468H219.614V114.988H219.542C219.542 113.116 219.942 111.7 220.742 110.74C221.542 109.78 222.718 109.3 224.27 109.3H224.75V112.204H223.838C222.718 112.204 221.846 112.508 221.222 113.116C220.614 113.708 220.31 114.572 220.31 115.708V122.5H216.974ZM234.808 122.5V118.636H234.256V114.34C234.256 113.588 234.072 113.028 233.704 112.66C233.336 112.292 232.768 112.108 232 112.108C231.6 112.108 231.12 112.116 230.56 112.132C230 112.148 229.432 112.172 228.856 112.204C228.296 112.22 227.792 112.244 227.344 112.276V109.444C227.712 109.412 228.128 109.38 228.592 109.348C229.056 109.316 229.528 109.3 230.008 109.3C230.504 109.284 230.968 109.276 231.4 109.276C232.744 109.276 233.856 109.452 234.736 109.804C235.632 110.156 236.304 110.708 236.752 111.46C237.216 112.212 237.448 113.196 237.448 114.412V122.5H234.808ZM230.608 122.836C229.664 122.836 228.832 122.668 228.112 122.332C227.408 121.996 226.856 121.516 226.456 120.892C226.072 120.268 225.88 119.516 225.88 118.636C225.88 117.676 226.112 116.892 226.576 116.284C227.056 115.676 227.72 115.22 228.568 114.916C229.432 114.612 230.44 114.46 231.592 114.46H234.616V116.452H231.544C230.776 116.452 230.184 116.644 229.768 117.028C229.368 117.396 229.168 117.876 229.168 118.468C229.168 119.06 229.368 119.54 229.768 119.908C230.184 120.276 230.776 120.46 231.544 120.46C232.008 120.46 232.432 120.38 232.816 120.22C233.216 120.044 233.544 119.756 233.8 119.356C234.072 118.94 234.224 118.38 234.256 117.676L235.072 118.612C234.992 119.524 234.768 120.292 234.4 120.916C234.048 121.54 233.552 122.02 232.912 122.356C232.288 122.676 231.52 122.836 230.608 122.836ZM246.109 127.636C245.485 127.636 244.845 127.612 244.189 127.564C243.549 127.516 242.949 127.452 242.389 127.372V124.588C242.965 124.652 243.581 124.708 244.237 124.756C244.893 124.82 245.509 124.852 246.085 124.852C247.157 124.852 248.021 124.724 248.677 124.468C249.349 124.212 249.837 123.804 250.141 123.244C250.461 122.7 250.621 122.004 250.621 121.156V118.588L251.341 116.956C251.293 118.156 251.045 119.18 250.597 120.028C250.149 120.86 249.541 121.5 248.773 121.948C248.005 122.38 247.117 122.596 246.109 122.596C245.213 122.596 244.397 122.428 243.661 122.092C242.941 121.756 242.317 121.292 241.789 120.7C241.277 120.108 240.877 119.412 240.589 118.612C240.301 117.812 240.157 116.956 240.157 116.044V115.54C240.157 114.628 240.301 113.78 240.589 112.996C240.893 112.196 241.317 111.5 241.861 110.908C242.405 110.316 243.053 109.86 243.805 109.54C244.557 109.22 245.389 109.06 246.301 109.06C247.373 109.06 248.301 109.292 249.085 109.756C249.885 110.22 250.509 110.892 250.957 111.772C251.405 112.652 251.653 113.732 251.701 115.012L251.125 115.108V109.468H253.765V120.964C253.765 122.548 253.493 123.828 252.949 124.804C252.405 125.78 251.565 126.492 250.429 126.94C249.309 127.404 247.869 127.636 246.109 127.636ZM247.069 119.74C247.709 119.74 248.293 119.596 248.821 119.308C249.349 119.02 249.773 118.604 250.093 118.06C250.413 117.516 250.573 116.86 250.573 116.092V115.252C250.573 114.516 250.405 113.892 250.069 113.38C249.749 112.868 249.325 112.484 248.797 112.228C248.269 111.956 247.693 111.82 247.069 111.82C246.365 111.82 245.741 111.988 245.197 112.324C244.669 112.644 244.253 113.1 243.949 113.692C243.645 114.284 243.493 114.988 243.493 115.804C243.493 116.604 243.645 117.3 243.949 117.892C244.253 118.484 244.669 118.94 245.197 119.26C245.741 119.58 246.365 119.74 247.069 119.74ZM263.236 122.956C262.116 122.956 261.132 122.764 260.284 122.38C259.452 121.996 258.756 121.484 258.196 120.844C257.652 120.188 257.236 119.46 256.948 118.66C256.676 117.86 256.54 117.044 256.54 116.212V115.756C256.54 114.892 256.676 114.06 256.948 113.26C257.236 112.444 257.652 111.724 258.196 111.1C258.756 110.46 259.444 109.956 260.26 109.588C261.076 109.204 262.02 109.012 263.092 109.012C264.5 109.012 265.676 109.324 266.62 109.948C267.58 110.556 268.3 111.364 268.78 112.372C269.26 113.364 269.5 114.436 269.5 115.588V116.788H257.956V114.748H267.412L266.38 115.756C266.38 114.924 266.26 114.212 266.02 113.62C265.78 113.028 265.412 112.572 264.916 112.252C264.436 111.932 263.828 111.772 263.092 111.772C262.356 111.772 261.732 111.94 261.22 112.276C260.708 112.612 260.316 113.1 260.044 113.74C259.788 114.364 259.66 115.116 259.66 115.996C259.66 116.812 259.788 117.54 260.044 118.18C260.3 118.804 260.692 119.3 261.22 119.668C261.748 120.02 262.42 120.196 263.236 120.196C264.052 120.196 264.716 120.036 265.228 119.716C265.74 119.38 266.068 118.972 266.212 118.492H269.284C269.092 119.388 268.724 120.172 268.18 120.844C267.636 121.516 266.94 122.036 266.092 122.404C265.26 122.772 264.308 122.956 263.236 122.956ZM277.466 122.5V109.468H280.106V115.06H279.866C279.866 113.748 280.034 112.652 280.37 111.772C280.706 110.876 281.202 110.204 281.858 109.756C282.53 109.292 283.362 109.06 284.354 109.06H284.498C285.506 109.06 286.338 109.292 286.994 109.756C287.666 110.204 288.162 110.876 288.482 111.772C288.818 112.652 288.986 113.748 288.986 115.06H288.146C288.146 113.748 288.314 112.652 288.65 111.772C289.002 110.876 289.506 110.204 290.162 109.756C290.834 109.292 291.666 109.06 292.658 109.06H292.802C293.81 109.06 294.65 109.292 295.322 109.756C295.994 110.204 296.498 110.876 296.834 111.772C297.186 112.652 297.362 113.748 297.362 115.06V122.5H294.026V114.748C294.026 113.932 293.818 113.284 293.402 112.804C292.986 112.308 292.394 112.06 291.626 112.06C290.858 112.06 290.242 112.316 289.778 112.828C289.314 113.324 289.082 113.996 289.082 114.844V122.5H285.746V114.748C285.746 113.932 285.538 113.284 285.122 112.804C284.706 112.308 284.114 112.06 283.346 112.06C282.578 112.06 281.962 112.316 281.498 112.828C281.034 113.324 280.802 113.996 280.802 114.844V122.5H277.466ZM307.191 122.956C306.039 122.956 305.023 122.772 304.143 122.404C303.263 122.036 302.519 121.54 301.911 120.916C301.303 120.276 300.839 119.556 300.519 118.756C300.215 117.956 300.063 117.124 300.063 116.26V115.756C300.063 114.86 300.223 114.012 300.543 113.212C300.879 112.396 301.351 111.676 301.959 111.052C302.583 110.412 303.335 109.916 304.215 109.564C305.095 109.196 306.087 109.012 307.191 109.012C308.295 109.012 309.287 109.196 310.167 109.564C311.047 109.916 311.791 110.412 312.399 111.052C313.023 111.676 313.495 112.396 313.815 113.212C314.135 114.012 314.295 114.86 314.295 115.756V116.26C314.295 117.124 314.135 117.956 313.815 118.756C313.511 119.556 313.055 120.276 312.447 120.916C311.839 121.54 311.095 122.036 310.215 122.404C309.335 122.772 308.327 122.956 307.191 122.956ZM307.191 120.1C308.007 120.1 308.695 119.924 309.255 119.572C309.815 119.204 310.239 118.716 310.527 118.108C310.815 117.484 310.959 116.78 310.959 115.996C310.959 115.196 310.807 114.492 310.503 113.884C310.215 113.26 309.783 112.772 309.207 112.42C308.647 112.052 307.975 111.868 307.191 111.868C306.407 111.868 305.727 112.052 305.151 112.42C304.591 112.772 304.159 113.26 303.855 113.884C303.551 114.492 303.399 115.196 303.399 115.996C303.399 116.78 303.543 117.484 303.831 118.108C304.135 118.716 304.567 119.204 305.127 119.572C305.687 119.924 306.375 120.1 307.191 120.1ZM317.216 122.5V109.468H319.856V115.06H319.616C319.616 113.732 319.792 112.628 320.144 111.748C320.496 110.852 321.016 110.18 321.704 109.732C322.408 109.284 323.28 109.06 324.32 109.06H324.464C326.016 109.06 327.192 109.564 327.992 110.572C328.792 111.564 329.192 113.052 329.192 115.036V122.5H325.856V114.748C325.856 113.948 325.624 113.3 325.16 112.804C324.712 112.308 324.088 112.06 323.288 112.06C322.472 112.06 321.808 112.316 321.296 112.828C320.8 113.324 320.552 113.996 320.552 114.844V122.5H317.216ZM338.443 122.668C337.243 122.668 336.251 122.516 335.467 122.212C334.699 121.892 334.123 121.364 333.739 120.628C333.355 119.876 333.163 118.868 333.163 117.604L333.187 105.796H336.307L336.283 117.82C336.283 118.46 336.451 118.956 336.787 119.308C337.139 119.644 337.635 119.812 338.275 119.812H340.315V122.668H338.443ZM331.099 111.916V109.468H340.315V111.916H331.099ZM343.115 122.5V104.98H346.451V115.204H345.875C345.875 113.892 346.043 112.78 346.379 111.868C346.715 110.956 347.211 110.26 347.867 109.78C348.539 109.3 349.387 109.06 350.411 109.06H350.555C352.043 109.06 353.171 109.572 353.939 110.596C354.707 111.62 355.091 113.108 355.091 115.06V122.5H351.755V114.748C351.755 113.916 351.515 113.26 351.035 112.78C350.571 112.3 349.955 112.06 349.187 112.06C348.371 112.06 347.707 112.332 347.195 112.876C346.699 113.404 346.451 114.1 346.451 114.964V122.5H343.115ZM358.845 122.5V104.98H362.181V122.5H358.845ZM357.213 107.476V104.98H362.181V107.476H357.213ZM365.606 127.636V124.78H368.054C368.518 124.78 368.902 124.716 369.206 124.588C369.526 124.476 369.79 124.284 369.998 124.012C370.206 123.756 370.366 123.396 370.478 122.932L373.982 109.468H377.174L373.31 123.652C373.054 124.628 372.694 125.404 372.23 125.98C371.766 126.572 371.166 126.996 370.43 127.252C369.71 127.508 368.814 127.636 367.742 127.636H365.606ZM369.662 122.212V119.572H372.446V122.212H369.662ZM368.534 122.212L364.31 109.468H367.67L371.678 122.212H368.534ZM390.43 122.956C389.294 122.956 388.31 122.764 387.478 122.38C386.662 121.996 385.974 121.484 385.414 120.844C384.87 120.204 384.462 119.484 384.19 118.684C383.918 117.884 383.782 117.068 383.782 116.236V115.78C383.782 114.9 383.918 114.06 384.19 113.26C384.478 112.444 384.902 111.724 385.462 111.1C386.022 110.46 386.71 109.956 387.526 109.588C388.358 109.204 389.318 109.012 390.406 109.012C391.542 109.012 392.558 109.236 393.454 109.684C394.35 110.116 395.062 110.724 395.59 111.508C396.134 112.292 396.438 113.204 396.502 114.244H393.262C393.182 113.572 392.894 113.012 392.398 112.564C391.918 112.116 391.254 111.892 390.406 111.892C389.67 111.892 389.054 112.068 388.558 112.42C388.078 112.772 387.718 113.26 387.478 113.884C387.238 114.492 387.118 115.196 387.118 115.996C387.118 116.764 387.23 117.46 387.454 118.084C387.694 118.708 388.054 119.196 388.534 119.548C389.03 119.9 389.662 120.076 390.43 120.076C391.006 120.076 391.502 119.972 391.918 119.764C392.334 119.556 392.662 119.268 392.902 118.9C393.158 118.532 393.318 118.116 393.382 117.652H396.622C396.558 118.708 396.246 119.636 395.686 120.436C395.142 121.22 394.414 121.836 393.502 122.284C392.606 122.732 391.582 122.956 390.43 122.956ZM405.558 122.956C404.406 122.956 403.39 122.772 402.51 122.404C401.63 122.036 400.886 121.54 400.278 120.916C399.67 120.276 399.206 119.556 398.886 118.756C398.582 117.956 398.43 117.124 398.43 116.26V115.756C398.43 114.86 398.59 114.012 398.91 113.212C399.246 112.396 399.718 111.676 400.326 111.052C400.95 110.412 401.702 109.916 402.582 109.564C403.462 109.196 404.454 109.012 405.558 109.012C406.662 109.012 407.654 109.196 408.534 109.564C409.414 109.916 410.158 110.412 410.766 111.052C411.39 111.676 411.862 112.396 412.182 113.212C412.502 114.012 412.662 114.86 412.662 115.756V116.26C412.662 117.124 412.502 117.956 412.182 118.756C411.878 119.556 411.422 120.276 410.814 120.916C410.206 121.54 409.462 122.036 408.582 122.404C407.702 122.772 406.694 122.956 405.558 122.956ZM405.558 120.1C406.374 120.1 407.062 119.924 407.622 119.572C408.182 119.204 408.606 118.716 408.894 118.108C409.182 117.484 409.326 116.78 409.326 115.996C409.326 115.196 409.174 114.492 408.87 113.884C408.582 113.26 408.15 112.772 407.574 112.42C407.014 112.052 406.342 111.868 405.558 111.868C404.774 111.868 404.094 112.052 403.518 112.42C402.958 112.772 402.526 113.26 402.222 113.884C401.918 114.492 401.766 115.196 401.766 115.996C401.766 116.78 401.91 117.484 402.198 118.108C402.502 118.716 402.934 119.204 403.494 119.572C404.054 119.924 404.742 120.1 405.558 120.1ZM420.312 122.908C418.52 122.908 417.112 122.532 416.088 121.78C415.08 121.012 414.552 119.956 414.504 118.612H417.504C417.552 119.06 417.8 119.468 418.248 119.836C418.696 120.204 419.4 120.388 420.36 120.388C421.16 120.388 421.792 120.244 422.256 119.956C422.736 119.668 422.976 119.276 422.976 118.78C422.976 118.348 422.792 118.004 422.424 117.748C422.072 117.492 421.464 117.324 420.6 117.244L419.448 117.124C417.992 116.964 416.872 116.548 416.088 115.876C415.304 115.204 414.912 114.308 414.912 113.188C414.912 112.292 415.136 111.54 415.584 110.932C416.032 110.324 416.648 109.868 417.432 109.564C418.232 109.244 419.144 109.084 420.168 109.084C421.768 109.084 423.064 109.436 424.056 110.14C425.048 110.844 425.568 111.876 425.616 113.236H422.616C422.584 112.788 422.36 112.404 421.944 112.084C421.528 111.764 420.928 111.604 420.144 111.604C419.44 111.604 418.896 111.74 418.512 112.012C418.128 112.284 417.936 112.636 417.936 113.068C417.936 113.484 418.088 113.804 418.392 114.028C418.712 114.252 419.224 114.404 419.928 114.484L421.08 114.604C422.616 114.764 423.816 115.188 424.68 115.876C425.56 116.564 426 117.492 426 118.66C426 119.524 425.76 120.276 425.28 120.916C424.816 121.54 424.16 122.028 423.312 122.38C422.464 122.732 421.464 122.908 420.312 122.908ZM434.419 122.668C433.219 122.668 432.227 122.516 431.443 122.212C430.675 121.892 430.099 121.364 429.715 120.628C429.331 119.876 429.139 118.868 429.139 117.604L429.163 105.796H432.283L432.259 117.82C432.259 118.46 432.427 118.956 432.763 119.308C433.115 119.644 433.611 119.812 434.251 119.812H436.291V122.668H434.419ZM427.075 111.916V109.468H436.291V111.916H427.075Z" fill="#20252C"></path><rect x="1" y="45" width="517" height="114" rx="9" stroke="#C1D4D4" stroke-width="2"></rect><rect x="1" y="190" width="517" height="114" rx="9" fill="white"></rect><circle cx="69" cy="247" r="32" fill="#E73D3D" fill-opacity="0.1"></circle><circle cx="69" cy="247.25" r="27" fill="#E73D3D" fill-opacity="0.1"></circle><circle cx="69" cy="248" r="22" fill="#E73D3D" fill-opacity="0.1"></circle><path fill-rule="evenodd" clip-rule="evenodd" d="M69 236C62.3727 236 57 241.373 57 248C57 254.627 62.3727 260 69 260C75.6273 260 81 254.627 81 248C81 241.373 75.6273 236 69 236ZM73.044 245.499C73.2427 245.293 73.3527 245.017 73.3502 244.731C73.3477 244.445 73.233 244.172 73.0307 243.969C72.8284 243.767 72.5548 243.652 72.2688 243.65C71.9828 243.647 71.7072 243.757 71.5015 243.956L69 246.457L66.4985 243.956C66.3979 243.852 66.2775 243.769 66.1444 243.712C66.0113 243.654 65.8682 243.624 65.7233 243.623C65.5785 243.622 65.4348 243.649 65.3008 243.704C65.1667 243.759 65.0449 243.84 64.9425 243.942C64.8401 244.045 64.759 244.167 64.7042 244.301C64.6493 244.435 64.6217 244.578 64.623 244.723C64.6243 244.868 64.6544 245.011 64.7115 245.144C64.7687 245.278 64.8518 245.398 64.956 245.499L67.4575 248L64.956 250.501C64.8518 250.602 64.7687 250.722 64.7115 250.856C64.6544 250.989 64.6243 251.132 64.623 251.277C64.6217 251.422 64.6493 251.565 64.7042 251.699C64.759 251.833 64.8401 251.955 64.9425 252.058C65.0449 252.16 65.1667 252.241 65.3008 252.296C65.4348 252.351 65.5785 252.378 65.7233 252.377C65.8682 252.376 66.0113 252.346 66.1444 252.288C66.2775 252.231 66.3979 252.148 66.4985 252.044L69 249.543L71.5015 252.044C71.7072 252.243 71.9828 252.353 72.2688 252.35C72.5548 252.348 72.8284 252.233 73.0307 252.031C73.233 251.828 73.3477 251.555 73.3502 251.269C73.3527 250.983 73.2427 250.707 73.044 250.501L70.5425 248L73.044 245.499Z" fill="#E73D3D"></path><path opacity="0.6" d="M123.466 223.318V233.5H122.233V223.318H123.466ZM126.952 228.906V233.5H125.779V225.864H126.912V227.057H127.012C127.191 226.669 127.463 226.357 127.827 226.122C128.192 225.884 128.662 225.764 129.239 225.764C129.756 225.764 130.209 225.87 130.596 226.082C130.984 226.291 131.286 226.609 131.501 227.037C131.717 227.461 131.824 227.998 131.824 228.648V233.5H130.651V228.727C130.651 228.127 130.495 227.66 130.184 227.325C129.872 226.987 129.445 226.818 128.901 226.818C128.527 226.818 128.192 226.899 127.897 227.062C127.605 227.224 127.375 227.461 127.206 227.773C127.037 228.084 126.952 228.462 126.952 228.906ZM138.343 228.588V229.682H133.889V228.588H138.343ZM140.567 233.5V223.318H141.8V227.852H147.229V223.318H148.462V233.5H147.229V228.946H141.8V233.5H140.567ZM153.873 233.659C153.184 233.659 152.579 233.495 152.059 233.167C151.542 232.839 151.137 232.38 150.846 231.79C150.557 231.2 150.413 230.51 150.413 229.722C150.413 228.926 150.557 228.232 150.846 227.638C151.137 227.045 151.542 226.585 152.059 226.256C152.579 225.928 153.184 225.764 153.873 225.764C154.563 225.764 155.166 225.928 155.683 226.256C156.203 226.585 156.608 227.045 156.896 227.638C157.188 228.232 157.334 228.926 157.334 229.722C157.334 230.51 157.188 231.2 156.896 231.79C156.608 232.38 156.203 232.839 155.683 233.167C155.166 233.495 154.563 233.659 153.873 233.659ZM153.873 232.605C154.397 232.605 154.828 232.471 155.166 232.202C155.504 231.934 155.754 231.581 155.917 231.143C156.079 230.706 156.16 230.232 156.16 229.722C156.16 229.211 156.079 228.736 155.917 228.295C155.754 227.854 155.504 227.498 155.166 227.226C154.828 226.954 154.397 226.818 153.873 226.818C153.35 226.818 152.919 226.954 152.581 227.226C152.243 227.498 151.992 227.854 151.83 228.295C151.668 228.736 151.586 229.211 151.586 229.722C151.586 230.232 151.668 230.706 151.83 231.143C151.992 231.581 152.243 231.934 152.581 232.202C152.919 232.471 153.35 232.605 153.873 232.605ZM163.937 230.378V225.864H165.11V233.5H163.937V232.207H163.858C163.679 232.595 163.4 232.925 163.022 233.197C162.645 233.465 162.167 233.599 161.591 233.599C161.113 233.599 160.689 233.495 160.318 233.286C159.947 233.074 159.655 232.756 159.443 232.332C159.231 231.904 159.125 231.366 159.125 230.716V225.864H160.298V230.636C160.298 231.193 160.454 231.637 160.765 231.969C161.08 232.3 161.481 232.466 161.968 232.466C162.26 232.466 162.557 232.391 162.858 232.242C163.163 232.093 163.418 231.864 163.624 231.556C163.833 231.248 163.937 230.855 163.937 230.378ZM172.669 227.574L171.615 227.872C171.548 227.696 171.45 227.526 171.321 227.36C171.195 227.191 171.023 227.052 170.804 226.942C170.585 226.833 170.305 226.778 169.964 226.778C169.497 226.778 169.107 226.886 168.796 227.102C168.487 227.314 168.333 227.584 168.333 227.912C168.333 228.204 168.439 228.434 168.651 228.603C168.864 228.772 169.195 228.913 169.646 229.026L170.779 229.304C171.462 229.47 171.971 229.723 172.306 230.065C172.64 230.403 172.808 230.839 172.808 231.372C172.808 231.81 172.682 232.201 172.43 232.545C172.181 232.89 171.833 233.162 171.386 233.361C170.938 233.56 170.418 233.659 169.825 233.659C169.046 233.659 168.401 233.49 167.891 233.152C167.38 232.814 167.057 232.32 166.921 231.67L168.035 231.392C168.141 231.803 168.342 232.111 168.637 232.317C168.935 232.522 169.324 232.625 169.805 232.625C170.352 232.625 170.786 232.509 171.107 232.277C171.432 232.042 171.595 231.76 171.595 231.432C171.595 231.167 171.502 230.945 171.316 230.766C171.131 230.583 170.846 230.447 170.461 230.358L169.188 230.06C168.489 229.894 167.975 229.637 167.647 229.289C167.322 228.938 167.16 228.499 167.16 227.972C167.16 227.541 167.281 227.16 167.523 226.828C167.768 226.497 168.101 226.237 168.522 226.048C168.946 225.859 169.427 225.764 169.964 225.764C170.72 225.764 171.313 225.93 171.744 226.261C172.178 226.593 172.486 227.03 172.669 227.574ZM177.776 233.659C177.04 233.659 176.405 233.497 175.871 233.172C175.341 232.844 174.932 232.386 174.643 231.8C174.358 231.21 174.216 230.524 174.216 229.741C174.216 228.959 174.358 228.27 174.643 227.673C174.932 227.073 175.333 226.606 175.847 226.271C176.364 225.933 176.967 225.764 177.656 225.764C178.054 225.764 178.447 225.83 178.835 225.963C179.222 226.096 179.575 226.311 179.893 226.609C180.212 226.904 180.465 227.295 180.654 227.783C180.843 228.27 180.938 228.87 180.938 229.582V230.08H175.051V229.065H179.744C179.744 228.634 179.658 228.25 179.486 227.912C179.317 227.574 179.075 227.307 178.76 227.112C178.448 226.916 178.08 226.818 177.656 226.818C177.189 226.818 176.785 226.934 176.443 227.166C176.105 227.395 175.845 227.693 175.663 228.061C175.48 228.429 175.389 228.823 175.389 229.244V229.92C175.389 230.497 175.489 230.986 175.688 231.387C175.89 231.785 176.17 232.088 176.528 232.297C176.886 232.502 177.302 232.605 177.776 232.605C178.084 232.605 178.362 232.562 178.611 232.476C178.863 232.386 179.08 232.254 179.262 232.078C179.444 231.899 179.585 231.677 179.685 231.412L180.818 231.73C180.699 232.115 180.498 232.453 180.217 232.744C179.935 233.033 179.587 233.258 179.173 233.42C178.758 233.58 178.293 233.659 177.776 233.659ZM187.833 223.318V233.5H186.66V223.318H187.833ZM189.982 233.5V225.864H191.155V233.5H189.982ZM190.579 224.591C190.35 224.591 190.153 224.513 189.987 224.357C189.825 224.201 189.743 224.014 189.743 223.795C189.743 223.577 189.825 223.389 189.987 223.234C190.153 223.078 190.35 223 190.579 223C190.807 223 191.003 223.078 191.165 223.234C191.331 223.389 191.414 223.577 191.414 223.795C191.414 224.014 191.331 224.201 191.165 224.357C191.003 224.513 190.807 224.591 190.579 224.591ZM194.478 228.906V233.5H193.304V225.864H194.438V227.057H194.537C194.716 226.669 194.988 226.357 195.353 226.122C195.717 225.884 196.188 225.764 196.765 225.764C197.282 225.764 197.734 225.87 198.122 226.082C198.51 226.291 198.811 226.609 199.027 227.037C199.242 227.461 199.35 227.998 199.35 228.648V233.5H198.176V228.727C198.176 228.127 198.021 227.66 197.709 227.325C197.398 226.987 196.97 226.818 196.426 226.818C196.052 226.818 195.717 226.899 195.422 227.062C195.131 227.224 194.9 227.461 194.731 227.773C194.562 228.084 194.478 228.462 194.478 228.906ZM202.588 230.716L202.568 229.264H202.806L206.147 225.864H207.599L204.039 229.463H203.94L202.588 230.716ZM201.494 233.5V223.318H202.667V233.5H201.494ZM206.346 233.5L203.363 229.722L204.198 228.906L207.838 233.5H206.346ZM209.268 233.5V223.318H210.441V227.077H210.541C210.627 226.944 210.746 226.775 210.899 226.57C211.055 226.361 211.277 226.175 211.565 226.013C211.857 225.847 212.251 225.764 212.748 225.764C213.391 225.764 213.958 225.925 214.449 226.246C214.939 226.568 215.322 227.024 215.597 227.614C215.872 228.204 216.01 228.9 216.01 229.702C216.01 230.51 215.872 231.211 215.597 231.805C215.322 232.395 214.941 232.852 214.453 233.177C213.966 233.498 213.404 233.659 212.768 233.659C212.278 233.659 211.885 233.578 211.59 233.415C211.295 233.25 211.068 233.062 210.909 232.854C210.75 232.642 210.627 232.466 210.541 232.327H210.402V233.5H209.268ZM210.422 229.682C210.422 230.259 210.506 230.767 210.675 231.208C210.844 231.646 211.091 231.989 211.416 232.237C211.741 232.482 212.138 232.605 212.609 232.605C213.1 232.605 213.509 232.476 213.837 232.217C214.168 231.955 214.417 231.604 214.583 231.163C214.752 230.719 214.836 230.225 214.836 229.682C214.836 229.145 214.753 228.661 214.588 228.23C214.425 227.796 214.178 227.453 213.847 227.201C213.519 226.946 213.106 226.818 212.609 226.818C212.132 226.818 211.731 226.939 211.406 227.181C211.081 227.42 210.836 227.754 210.67 228.185C210.504 228.613 210.422 229.112 210.422 229.682ZM222.617 230.378V225.864H223.79V233.5H222.617V232.207H222.537C222.358 232.595 222.08 232.925 221.702 233.197C221.324 233.465 220.847 233.599 220.27 233.599C219.793 233.599 219.369 233.495 218.998 233.286C218.626 233.074 218.335 232.756 218.123 232.332C217.91 231.904 217.804 231.366 217.804 230.716V225.864H218.978V230.636C218.978 231.193 219.133 231.637 219.445 231.969C219.76 232.3 220.161 232.466 220.648 232.466C220.94 232.466 221.236 232.391 221.538 232.242C221.843 232.093 222.098 231.864 222.304 231.556C222.512 231.248 222.617 230.855 222.617 230.378ZM225.939 233.5V225.864H227.112V233.5H225.939ZM226.536 224.591C226.307 224.591 226.11 224.513 225.944 224.357C225.782 224.201 225.7 224.014 225.7 223.795C225.7 223.577 225.782 223.389 225.944 223.234C226.11 223.078 226.307 223 226.536 223C226.764 223 226.96 223.078 227.122 223.234C227.288 223.389 227.371 223.577 227.371 223.795C227.371 224.014 227.288 224.201 227.122 224.357C226.96 224.513 226.764 224.591 226.536 224.591ZM230.435 223.318V233.5H229.261V223.318H230.435ZM235.467 233.659C234.831 233.659 234.269 233.498 233.782 233.177C233.295 232.852 232.913 232.395 232.638 231.805C232.363 231.211 232.226 230.51 232.226 229.702C232.226 228.9 232.363 228.204 232.638 227.614C232.913 227.024 233.296 226.568 233.787 226.246C234.277 225.925 234.844 225.764 235.487 225.764C235.984 225.764 236.377 225.847 236.665 226.013C236.957 226.175 237.179 226.361 237.331 226.57C237.487 226.775 237.608 226.944 237.694 227.077H237.794V223.318H238.967V233.5H237.834V232.327H237.694C237.608 232.466 237.486 232.642 237.327 232.854C237.167 233.062 236.94 233.25 236.645 233.415C236.35 233.578 235.958 233.659 235.467 233.659ZM235.626 232.605C236.097 232.605 236.495 232.482 236.819 232.237C237.144 231.989 237.391 231.646 237.56 231.208C237.729 230.767 237.814 230.259 237.814 229.682C237.814 229.112 237.731 228.613 237.565 228.185C237.399 227.754 237.154 227.42 236.829 227.181C236.505 226.939 236.104 226.818 235.626 226.818C235.129 226.818 234.715 226.946 234.383 227.201C234.055 227.453 233.808 227.796 233.643 228.23C233.48 228.661 233.399 229.145 233.399 229.682C233.399 230.225 233.482 230.719 233.648 231.163C233.817 231.604 234.065 231.955 234.393 232.217C234.725 232.476 235.136 232.605 235.626 232.605ZM241.279 233.5V225.864H242.452V233.5H241.279ZM241.876 224.591C241.647 224.591 241.45 224.513 241.284 224.357C241.122 224.201 241.04 224.014 241.04 223.795C241.04 223.577 241.122 223.389 241.284 223.234C241.45 223.078 241.647 223 241.876 223C242.104 223 242.3 223.078 242.462 223.234C242.628 223.389 242.711 223.577 242.711 223.795C242.711 224.014 242.628 224.201 242.462 224.357C242.3 224.513 242.104 224.591 241.876 224.591ZM245.775 228.906V233.5H244.601V225.864H245.735V227.057H245.834C246.013 226.669 246.285 226.357 246.65 226.122C247.014 225.884 247.485 225.764 248.061 225.764C248.578 225.764 249.031 225.87 249.419 226.082C249.806 226.291 250.108 226.609 250.324 227.037C250.539 227.461 250.647 227.998 250.647 228.648V233.5H249.473V228.727C249.473 228.127 249.318 227.66 249.006 227.325C248.694 226.987 248.267 226.818 247.723 226.818C247.349 226.818 247.014 226.899 246.719 227.062C246.427 227.224 246.197 227.461 246.028 227.773C245.859 228.084 245.775 228.462 245.775 228.906ZM255.873 236.523C255.306 236.523 254.819 236.45 254.411 236.304C254.004 236.161 253.664 235.973 253.392 235.737C253.124 235.505 252.91 235.257 252.751 234.991L253.686 234.335C253.792 234.474 253.926 234.634 254.088 234.812C254.251 234.995 254.473 235.152 254.754 235.285C255.039 235.421 255.412 235.489 255.873 235.489C256.49 235.489 256.998 235.339 257.399 235.041C257.8 234.743 258.001 234.276 258.001 233.639V232.088H257.901C257.815 232.227 257.693 232.4 257.534 232.605C257.378 232.807 257.152 232.988 256.857 233.147C256.566 233.303 256.171 233.381 255.674 233.381C255.058 233.381 254.504 233.235 254.014 232.943C253.526 232.652 253.14 232.227 252.855 231.67C252.574 231.114 252.433 230.437 252.433 229.642C252.433 228.86 252.57 228.179 252.845 227.599C253.12 227.015 253.503 226.565 253.994 226.246C254.484 225.925 255.051 225.764 255.694 225.764C256.191 225.764 256.586 225.847 256.877 226.013C257.172 226.175 257.398 226.361 257.553 226.57C257.713 226.775 257.835 226.944 257.921 227.077H258.041V225.864H259.174V233.719C259.174 234.375 259.025 234.909 258.727 235.32C258.432 235.734 258.034 236.037 257.534 236.229C257.036 236.425 256.483 236.523 255.873 236.523ZM255.833 232.327C256.304 232.327 256.702 232.219 257.026 232.004C257.351 231.788 257.598 231.478 257.767 231.074C257.936 230.67 258.021 230.186 258.021 229.622C258.021 229.072 257.938 228.586 257.772 228.165C257.606 227.745 257.361 227.415 257.036 227.176C256.712 226.937 256.311 226.818 255.833 226.818C255.336 226.818 254.922 226.944 254.59 227.196C254.262 227.448 254.015 227.786 253.85 228.21C253.687 228.634 253.606 229.105 253.606 229.622C253.606 230.152 253.689 230.621 253.855 231.029C254.024 231.433 254.272 231.752 254.6 231.984C254.932 232.212 255.343 232.327 255.833 232.327ZM273.612 226.5H272.379C272.306 226.145 272.178 225.834 271.996 225.565C271.817 225.297 271.598 225.071 271.34 224.889C271.084 224.704 270.801 224.564 270.49 224.472C270.178 224.379 269.853 224.332 269.515 224.332C268.899 224.332 268.34 224.488 267.84 224.8C267.343 225.111 266.946 225.57 266.651 226.177C266.36 226.783 266.214 227.527 266.214 228.409C266.214 229.291 266.36 230.035 266.651 230.641C266.946 231.248 267.343 231.707 267.84 232.018C268.34 232.33 268.899 232.486 269.515 232.486C269.853 232.486 270.178 232.439 270.49 232.347C270.801 232.254 271.084 232.116 271.34 231.934C271.598 231.748 271.817 231.521 271.996 231.253C272.178 230.981 272.306 230.67 272.379 230.318H273.612C273.519 230.839 273.35 231.304 273.105 231.715C272.859 232.126 272.554 232.476 272.19 232.764C271.825 233.049 271.416 233.266 270.962 233.415C270.511 233.565 270.029 233.639 269.515 233.639C268.647 233.639 267.874 233.427 267.198 233.003C266.522 232.579 265.99 231.975 265.602 231.193C265.215 230.411 265.021 229.483 265.021 228.409C265.021 227.335 265.215 226.407 265.602 225.625C265.99 224.843 266.522 224.24 267.198 223.815C267.874 223.391 268.647 223.179 269.515 223.179C270.029 223.179 270.511 223.254 270.962 223.403C271.416 223.552 271.825 223.771 272.19 224.059C272.554 224.344 272.859 224.692 273.105 225.103C273.35 225.511 273.519 225.976 273.612 226.5ZM277.692 233.679C277.208 233.679 276.769 233.588 276.375 233.406C275.98 233.22 275.667 232.953 275.435 232.605C275.203 232.254 275.087 231.83 275.087 231.332C275.087 230.895 275.173 230.54 275.346 230.268C275.518 229.993 275.748 229.778 276.037 229.622C276.325 229.466 276.643 229.35 276.991 229.274C277.342 229.195 277.695 229.132 278.05 229.085C278.514 229.026 278.89 228.981 279.179 228.951C279.47 228.918 279.682 228.863 279.815 228.787C279.951 228.711 280.019 228.578 280.019 228.389V228.349C280.019 227.859 279.885 227.478 279.616 227.206C279.351 226.934 278.948 226.798 278.408 226.798C277.848 226.798 277.409 226.921 277.091 227.166C276.772 227.411 276.549 227.673 276.419 227.952L275.306 227.554C275.505 227.09 275.77 226.729 276.101 226.47C276.436 226.208 276.801 226.026 277.195 225.923C277.593 225.817 277.984 225.764 278.368 225.764C278.614 225.764 278.895 225.794 279.213 225.854C279.535 225.91 279.845 226.028 280.143 226.207C280.445 226.386 280.695 226.656 280.894 227.017C281.093 227.378 281.192 227.862 281.192 228.469V233.5H280.019V232.466H279.959C279.88 232.632 279.747 232.809 279.561 232.998C279.376 233.187 279.129 233.348 278.821 233.48C278.512 233.613 278.136 233.679 277.692 233.679ZM277.871 232.625C278.335 232.625 278.726 232.534 279.044 232.352C279.366 232.169 279.608 231.934 279.77 231.646C279.936 231.357 280.019 231.054 280.019 230.736V229.662C279.969 229.722 279.86 229.776 279.691 229.826C279.525 229.872 279.333 229.914 279.114 229.95C278.899 229.983 278.688 230.013 278.483 230.04C278.28 230.063 278.116 230.083 277.99 230.099C277.685 230.139 277.4 230.204 277.135 230.293C276.873 230.379 276.661 230.51 276.499 230.686C276.34 230.858 276.26 231.094 276.26 231.392C276.26 231.8 276.411 232.108 276.713 232.317C277.018 232.522 277.404 232.625 277.871 232.625ZM283.334 233.5V225.864H284.467V227.057H284.567C284.726 226.649 284.983 226.333 285.337 226.107C285.692 225.879 286.118 225.764 286.615 225.764C287.119 225.764 287.538 225.879 287.873 226.107C288.211 226.333 288.474 226.649 288.663 227.057H288.743C288.938 226.662 289.232 226.349 289.623 226.117C290.014 225.882 290.483 225.764 291.03 225.764C291.712 225.764 292.271 225.978 292.705 226.406C293.139 226.83 293.356 227.491 293.356 228.389V233.5H292.183V228.389C292.183 227.826 292.029 227.423 291.721 227.181C291.412 226.939 291.05 226.818 290.632 226.818C290.095 226.818 289.679 226.981 289.384 227.305C289.089 227.627 288.942 228.035 288.942 228.528V233.5H287.748V228.27C287.748 227.836 287.608 227.486 287.326 227.221C287.044 226.952 286.681 226.818 286.237 226.818C285.932 226.818 285.647 226.899 285.382 227.062C285.12 227.224 284.908 227.45 284.746 227.738C284.586 228.023 284.507 228.353 284.507 228.727V233.5H283.334ZM295.502 236.364V225.864H296.635V227.077H296.774C296.86 226.944 296.98 226.775 297.132 226.57C297.288 226.361 297.51 226.175 297.798 226.013C298.09 225.847 298.485 225.764 298.982 225.764C299.625 225.764 300.191 225.925 300.682 226.246C301.173 226.568 301.555 227.024 301.83 227.614C302.106 228.204 302.243 228.9 302.243 229.702C302.243 230.51 302.106 231.211 301.83 231.805C301.555 232.395 301.174 232.852 300.687 233.177C300.2 233.498 299.638 233.659 299.002 233.659C298.511 233.659 298.118 233.578 297.823 233.415C297.528 233.25 297.301 233.062 297.142 232.854C296.983 232.642 296.86 232.466 296.774 232.327H296.675V236.364H295.502ZM296.655 229.682C296.655 230.259 296.74 230.767 296.909 231.208C297.078 231.646 297.325 231.989 297.649 232.237C297.974 232.482 298.372 232.605 298.843 232.605C299.333 232.605 299.742 232.476 300.07 232.217C300.402 231.955 300.651 231.604 300.816 231.163C300.985 230.719 301.07 230.225 301.07 229.682C301.07 229.145 300.987 228.661 300.821 228.23C300.659 227.796 300.412 227.453 300.08 227.201C299.752 226.946 299.34 226.818 298.843 226.818C298.365 226.818 297.964 226.939 297.639 227.181C297.315 227.42 297.069 227.754 296.904 228.185C296.738 228.613 296.655 229.112 296.655 229.682ZM306.28 233.679C305.796 233.679 305.357 233.588 304.963 233.406C304.568 233.22 304.255 232.953 304.023 232.605C303.791 232.254 303.675 231.83 303.675 231.332C303.675 230.895 303.761 230.54 303.933 230.268C304.106 229.993 304.336 229.778 304.624 229.622C304.913 229.466 305.231 229.35 305.579 229.274C305.93 229.195 306.283 229.132 306.638 229.085C307.102 229.026 307.478 228.981 307.767 228.951C308.058 228.918 308.27 228.863 308.403 228.787C308.539 228.711 308.607 228.578 308.607 228.389V228.349C308.607 227.859 308.472 227.478 308.204 227.206C307.939 226.934 307.536 226.798 306.996 226.798C306.436 226.798 305.997 226.921 305.678 227.166C305.36 227.411 305.137 227.673 305.007 227.952L303.894 227.554C304.093 227.09 304.358 226.729 304.689 226.47C305.024 226.208 305.388 226.026 305.783 225.923C306.181 225.817 306.572 225.764 306.956 225.764C307.201 225.764 307.483 225.794 307.801 225.854C308.123 225.91 308.433 226.028 308.731 226.207C309.033 226.386 309.283 226.656 309.482 227.017C309.681 227.378 309.78 227.862 309.78 228.469V233.5H308.607V232.466H308.547C308.468 232.632 308.335 232.809 308.149 232.998C307.964 233.187 307.717 233.348 307.409 233.48C307.1 233.613 306.724 233.679 306.28 233.679ZM306.459 232.625C306.923 232.625 307.314 232.534 307.632 232.352C307.954 232.169 308.196 231.934 308.358 231.646C308.524 231.357 308.607 231.054 308.607 230.736V229.662C308.557 229.722 308.448 229.776 308.279 229.826C308.113 229.872 307.921 229.914 307.702 229.95C307.486 229.983 307.276 230.013 307.07 230.04C306.868 230.063 306.704 230.083 306.578 230.099C306.273 230.139 305.988 230.204 305.723 230.293C305.461 230.379 305.249 230.51 305.087 230.686C304.928 230.858 304.848 231.094 304.848 231.392C304.848 231.8 304.999 232.108 305.301 232.317C305.606 232.522 305.992 232.625 306.459 232.625ZM311.922 233.5V225.864H313.095V233.5H311.922ZM312.518 224.591C312.289 224.591 312.092 224.513 311.926 224.357C311.764 224.201 311.683 224.014 311.683 223.795C311.683 223.577 311.764 223.389 311.926 223.234C312.092 223.078 312.289 223 312.518 223C312.747 223 312.942 223.078 313.105 223.234C313.27 223.389 313.353 223.577 313.353 223.795C313.353 224.014 313.27 224.201 313.105 224.357C312.942 224.513 312.747 224.591 312.518 224.591ZM318.326 236.523C317.759 236.523 317.272 236.45 316.865 236.304C316.457 236.161 316.117 235.973 315.845 235.737C315.577 235.505 315.363 235.257 315.204 234.991L316.139 234.335C316.245 234.474 316.379 234.634 316.541 234.812C316.704 234.995 316.926 235.152 317.208 235.285C317.493 235.421 317.865 235.489 318.326 235.489C318.943 235.489 319.451 235.339 319.852 235.041C320.253 234.743 320.454 234.276 320.454 233.639V232.088H320.355C320.268 232.227 320.146 232.4 319.987 232.605C319.831 232.807 319.606 232.988 319.311 233.147C319.019 233.303 318.624 233.381 318.127 233.381C317.511 233.381 316.957 233.235 316.467 232.943C315.98 232.652 315.593 232.227 315.308 231.67C315.027 231.114 314.886 230.437 314.886 229.642C314.886 228.86 315.023 228.179 315.298 227.599C315.574 227.015 315.956 226.565 316.447 226.246C316.937 225.925 317.504 225.764 318.147 225.764C318.644 225.764 319.039 225.847 319.33 226.013C319.625 226.175 319.851 226.361 320.007 226.57C320.166 226.775 320.288 226.944 320.374 227.077H320.494V225.864H321.627V233.719C321.627 234.375 321.478 234.909 321.18 235.32C320.885 235.734 320.487 236.037 319.987 236.229C319.49 236.425 318.936 236.523 318.326 236.523ZM318.286 232.327C318.757 232.327 319.155 232.219 319.48 232.004C319.804 231.788 320.051 231.478 320.22 231.074C320.389 230.67 320.474 230.186 320.474 229.622C320.474 229.072 320.391 228.586 320.225 228.165C320.06 227.745 319.814 227.415 319.49 227.176C319.165 226.937 318.764 226.818 318.286 226.818C317.789 226.818 317.375 226.944 317.044 227.196C316.715 227.448 316.468 227.786 316.303 228.21C316.14 228.634 316.059 229.105 316.059 229.622C316.059 230.152 316.142 230.621 316.308 231.029C316.477 231.433 316.725 231.752 317.053 231.984C317.385 232.212 317.796 232.327 318.286 232.327ZM324.948 228.906V233.5H323.775V225.864H324.909V227.057H325.008C325.187 226.669 325.459 226.357 325.823 226.122C326.188 225.884 326.659 225.764 327.235 225.764C327.752 225.764 328.205 225.87 328.593 226.082C328.98 226.291 329.282 226.609 329.497 227.037C329.713 227.461 329.82 227.998 329.82 228.648V233.5H328.647V228.727C328.647 228.127 328.491 227.66 328.18 227.325C327.868 226.987 327.441 226.818 326.897 226.818C326.523 226.818 326.188 226.899 325.893 227.062C325.601 227.224 325.371 227.461 325.202 227.773C325.033 228.084 324.948 228.462 324.948 228.906ZM337.374 227.574L336.32 227.872C336.253 227.696 336.156 227.526 336.026 227.36C335.9 227.191 335.728 227.052 335.509 226.942C335.29 226.833 335.01 226.778 334.669 226.778C334.202 226.778 333.812 226.886 333.501 227.102C333.192 227.314 333.038 227.584 333.038 227.912C333.038 228.204 333.144 228.434 333.357 228.603C333.569 228.772 333.9 228.913 334.351 229.026L335.484 229.304C336.167 229.47 336.676 229.723 337.011 230.065C337.345 230.403 337.513 230.839 337.513 231.372C337.513 231.81 337.387 232.201 337.135 232.545C336.886 232.89 336.538 233.162 336.091 233.361C335.643 233.56 335.123 233.659 334.53 233.659C333.751 233.659 333.106 233.49 332.596 233.152C332.085 232.814 331.762 232.32 331.626 231.67L332.74 231.392C332.846 231.803 333.047 232.111 333.342 232.317C333.64 232.522 334.029 232.625 334.51 232.625C335.057 232.625 335.491 232.509 335.812 232.277C336.137 232.042 336.3 231.76 336.3 231.432C336.3 231.167 336.207 230.945 336.021 230.766C335.836 230.583 335.551 230.447 335.166 230.358L333.893 230.06C333.194 229.894 332.68 229.637 332.352 229.289C332.027 228.938 331.865 228.499 331.865 227.972C331.865 227.541 331.986 227.16 332.228 226.828C332.473 226.497 332.806 226.237 333.227 226.048C333.652 225.859 334.132 225.764 334.669 225.764C335.425 225.764 336.018 225.93 336.449 226.261C336.883 226.593 337.191 227.03 337.374 227.574Z" fill="#20252C"></path><path d="M128.848 267.572C127.344 267.572 126.08 267.348 125.056 266.9C124.048 266.436 123.28 265.788 122.752 264.956C122.24 264.108 121.984 263.108 121.984 261.956H125.056C125.056 262.452 125.184 262.924 125.44 263.372C125.696 263.82 126.096 264.188 126.64 264.476C127.2 264.748 127.936 264.884 128.848 264.884C130.048 264.884 130.96 264.652 131.584 264.188C132.208 263.724 132.52 263.148 132.52 262.46C132.52 261.836 132.248 261.316 131.704 260.9C131.176 260.484 130.352 260.228 129.232 260.132L127.888 260.012C126.24 259.852 124.928 259.356 123.952 258.524C122.976 257.676 122.488 256.476 122.488 254.924C122.488 253.852 122.728 252.948 123.208 252.212C123.704 251.476 124.408 250.924 125.32 250.556C126.248 250.172 127.344 249.98 128.608 249.98C129.92 249.98 131.032 250.196 131.944 250.628C132.872 251.06 133.576 251.684 134.056 252.5C134.552 253.3 134.8 254.276 134.8 255.428H131.728C131.728 254.932 131.608 254.476 131.368 254.06C131.144 253.644 130.8 253.308 130.336 253.052C129.888 252.796 129.312 252.668 128.608 252.668C127.968 252.668 127.424 252.764 126.976 252.956C126.528 253.148 126.184 253.412 125.944 253.748C125.704 254.084 125.584 254.476 125.584 254.924C125.584 255.484 125.784 255.98 126.184 256.412C126.6 256.844 127.264 257.1 128.176 257.18L129.52 257.3C131.36 257.46 132.832 257.972 133.936 258.836C135.056 259.7 135.616 260.908 135.616 262.46C135.616 263.532 135.344 264.452 134.8 265.22C134.272 265.972 133.504 266.556 132.496 266.972C131.488 267.372 130.272 267.572 128.848 267.572ZM127.384 270.596V267.092H130.168V270.596H127.384ZM127.288 251.156V247.652H130.072V251.156H127.288ZM141.073 267.5V252.092L142.129 252.908H137.497V249.98H144.457V267.5H141.073ZM155.924 267.956C154.548 267.956 153.38 267.732 152.42 267.284C151.46 266.82 150.676 266.196 150.068 265.412C149.46 264.612 149.012 263.7 148.724 262.676C148.452 261.636 148.316 260.548 148.316 259.412V258.068C148.316 256.452 148.588 254.996 149.132 253.7C149.676 252.404 150.508 251.38 151.628 250.628C152.748 249.86 154.18 249.476 155.924 249.476C157.652 249.476 159.076 249.86 160.196 250.628C161.316 251.38 162.14 252.404 162.668 253.7C163.212 254.996 163.484 256.452 163.484 258.068V259.412C163.484 260.548 163.34 261.636 163.052 262.676C162.78 263.7 162.34 264.612 161.732 265.412C161.14 266.196 160.364 266.82 159.404 267.284C158.444 267.732 157.284 267.956 155.924 267.956ZM155.924 264.836C157.348 264.836 158.396 264.348 159.068 263.372C159.74 262.38 160.076 260.844 160.076 258.764C160.076 256.556 159.732 254.98 159.044 254.036C158.356 253.076 157.316 252.596 155.924 252.596C154.516 252.596 153.46 253.076 152.756 254.036C152.068 254.98 151.724 256.54 151.724 258.716C151.724 260.812 152.068 262.356 152.756 263.348C153.444 264.34 154.5 264.836 155.924 264.836ZM175.985 267.5L171.617 261.404H169.673L175.217 254.468H178.697L173.585 260.876L173.657 259.196L179.753 267.5H175.985ZM166.865 267.5V249.98H170.201V267.5H166.865ZM194.753 267.5V263.636H194.201V259.34C194.201 258.588 194.017 258.028 193.649 257.66C193.281 257.292 192.713 257.108 191.945 257.108C191.545 257.108 191.065 257.116 190.505 257.132C189.945 257.148 189.377 257.172 188.801 257.204C188.241 257.22 187.737 257.244 187.289 257.276V254.444C187.657 254.412 188.073 254.38 188.537 254.348C189.001 254.316 189.473 254.3 189.953 254.3C190.449 254.284 190.913 254.276 191.345 254.276C192.689 254.276 193.801 254.452 194.681 254.804C195.577 255.156 196.249 255.708 196.697 256.46C197.161 257.212 197.393 258.196 197.393 259.412V267.5H194.753ZM190.553 267.836C189.609 267.836 188.777 267.668 188.057 267.332C187.353 266.996 186.801 266.516 186.401 265.892C186.017 265.268 185.825 264.516 185.825 263.636C185.825 262.676 186.057 261.892 186.521 261.284C187.001 260.676 187.665 260.22 188.513 259.916C189.377 259.612 190.385 259.46 191.537 259.46H194.561V261.452H191.489C190.721 261.452 190.129 261.644 189.713 262.028C189.313 262.396 189.113 262.876 189.113 263.468C189.113 264.06 189.313 264.54 189.713 264.908C190.129 265.276 190.721 265.46 191.489 265.46C191.953 265.46 192.377 265.38 192.761 265.22C193.161 265.044 193.489 264.756 193.745 264.356C194.017 263.94 194.169 263.38 194.201 262.676L195.017 263.612C194.937 264.524 194.713 265.292 194.345 265.916C193.993 266.54 193.497 267.02 192.857 267.356C192.233 267.676 191.465 267.836 190.553 267.836ZM203.418 267.5L199.338 254.468H202.77L206.682 267.5H203.418ZM204.402 267.5V264.764H207.93V267.5H204.402ZM205.722 267.5L209.082 254.468H212.298L208.77 267.5H205.722ZM220.369 267.956C219.249 267.956 218.265 267.764 217.417 267.38C216.585 266.996 215.889 266.484 215.329 265.844C214.785 265.188 214.369 264.46 214.081 263.66C213.809 262.86 213.673 262.044 213.673 261.212V260.756C213.673 259.892 213.809 259.06 214.081 258.26C214.369 257.444 214.785 256.724 215.329 256.1C215.889 255.46 216.577 254.956 217.393 254.588C218.209 254.204 219.153 254.012 220.225 254.012C221.633 254.012 222.809 254.324 223.753 254.948C224.713 255.556 225.433 256.364 225.913 257.372C226.393 258.364 226.633 259.436 226.633 260.588V261.788H215.089V259.748H224.545L223.513 260.756C223.513 259.924 223.393 259.212 223.153 258.62C222.913 258.028 222.545 257.572 222.049 257.252C221.569 256.932 220.961 256.772 220.225 256.772C219.489 256.772 218.865 256.94 218.353 257.276C217.841 257.612 217.449 258.1 217.177 258.74C216.921 259.364 216.793 260.116 216.793 260.996C216.793 261.812 216.921 262.54 217.177 263.18C217.433 263.804 217.825 264.3 218.353 264.668C218.881 265.02 219.553 265.196 220.369 265.196C221.185 265.196 221.849 265.036 222.361 264.716C222.873 264.38 223.201 263.972 223.345 263.492H226.417C226.225 264.388 225.857 265.172 225.313 265.844C224.769 266.516 224.073 267.036 223.225 267.404C222.393 267.772 221.441 267.956 220.369 267.956ZM229.419 267.5V254.468H232.059V259.988H231.987C231.987 258.116 232.387 256.7 233.187 255.74C233.987 254.78 235.163 254.3 236.715 254.3H237.195V257.204H236.283C235.163 257.204 234.291 257.508 233.667 258.116C233.059 258.708 232.755 259.572 232.755 260.708V267.5H229.419ZM247.253 267.5V263.636H246.701V259.34C246.701 258.588 246.517 258.028 246.149 257.66C245.781 257.292 245.213 257.108 244.445 257.108C244.045 257.108 243.565 257.116 243.005 257.132C242.445 257.148 241.877 257.172 241.301 257.204C240.741 257.22 240.237 257.244 239.789 257.276V254.444C240.157 254.412 240.573 254.38 241.037 254.348C241.501 254.316 241.973 254.3 242.453 254.3C242.949 254.284 243.413 254.276 243.845 254.276C245.189 254.276 246.301 254.452 247.181 254.804C248.077 255.156 248.749 255.708 249.197 256.46C249.661 257.212 249.893 258.196 249.893 259.412V267.5H247.253ZM243.053 267.836C242.109 267.836 241.277 267.668 240.557 267.332C239.853 266.996 239.301 266.516 238.901 265.892C238.517 265.268 238.325 264.516 238.325 263.636C238.325 262.676 238.557 261.892 239.021 261.284C239.501 260.676 240.165 260.22 241.013 259.916C241.877 259.612 242.885 259.46 244.037 259.46H247.061V261.452H243.989C243.221 261.452 242.629 261.644 242.213 262.028C241.813 262.396 241.613 262.876 241.613 263.468C241.613 264.06 241.813 264.54 242.213 264.908C242.629 265.276 243.221 265.46 243.989 265.46C244.453 265.46 244.877 265.38 245.261 265.22C245.661 265.044 245.989 264.756 246.245 264.356C246.517 263.94 246.669 263.38 246.701 262.676L247.517 263.612C247.437 264.524 247.213 265.292 246.845 265.916C246.493 266.54 245.997 267.02 245.357 267.356C244.733 267.676 243.965 267.836 243.053 267.836ZM258.554 272.636C257.93 272.636 257.29 272.612 256.634 272.564C255.994 272.516 255.394 272.452 254.834 272.372V269.588C255.41 269.652 256.026 269.708 256.682 269.756C257.338 269.82 257.954 269.852 258.53 269.852C259.602 269.852 260.466 269.724 261.122 269.468C261.794 269.212 262.282 268.804 262.586 268.244C262.906 267.7 263.066 267.004 263.066 266.156V263.588L263.786 261.956C263.738 263.156 263.49 264.18 263.042 265.028C262.594 265.86 261.986 266.5 261.218 266.948C260.45 267.38 259.562 267.596 258.554 267.596C257.658 267.596 256.842 267.428 256.106 267.092C255.386 266.756 254.762 266.292 254.234 265.7C253.722 265.108 253.322 264.412 253.034 263.612C252.746 262.812 252.602 261.956 252.602 261.044V260.54C252.602 259.628 252.746 258.78 253.034 257.996C253.338 257.196 253.762 256.5 254.306 255.908C254.85 255.316 255.498 254.86 256.25 254.54C257.002 254.22 257.834 254.06 258.746 254.06C259.818 254.06 260.746 254.292 261.53 254.756C262.33 255.22 262.954 255.892 263.402 256.772C263.85 257.652 264.098 258.732 264.146 260.012L263.57 260.108V254.468H266.21V265.964C266.21 267.548 265.938 268.828 265.394 269.804C264.85 270.78 264.01 271.492 262.874 271.94C261.754 272.404 260.314 272.636 258.554 272.636ZM259.514 264.74C260.154 264.74 260.738 264.596 261.266 264.308C261.794 264.02 262.218 263.604 262.538 263.06C262.858 262.516 263.018 261.86 263.018 261.092V260.252C263.018 259.516 262.85 258.892 262.514 258.38C262.194 257.868 261.77 257.484 261.242 257.228C260.714 256.956 260.138 256.82 259.514 256.82C258.81 256.82 258.186 256.988 257.642 257.324C257.114 257.644 256.698 258.1 256.394 258.692C256.09 259.284 255.938 259.988 255.938 260.804C255.938 261.604 256.09 262.3 256.394 262.892C256.698 263.484 257.114 263.94 257.642 264.26C258.186 264.58 258.81 264.74 259.514 264.74ZM275.681 267.956C274.561 267.956 273.577 267.764 272.729 267.38C271.897 266.996 271.201 266.484 270.641 265.844C270.097 265.188 269.681 264.46 269.393 263.66C269.121 262.86 268.985 262.044 268.985 261.212V260.756C268.985 259.892 269.121 259.06 269.393 258.26C269.681 257.444 270.097 256.724 270.641 256.1C271.201 255.46 271.889 254.956 272.705 254.588C273.521 254.204 274.465 254.012 275.537 254.012C276.945 254.012 278.121 254.324 279.065 254.948C280.025 255.556 280.745 256.364 281.225 257.372C281.705 258.364 281.945 259.436 281.945 260.588V261.788H270.401V259.748H279.857L278.825 260.756C278.825 259.924 278.705 259.212 278.465 258.62C278.225 258.028 277.857 257.572 277.361 257.252C276.881 256.932 276.273 256.772 275.537 256.772C274.801 256.772 274.177 256.94 273.665 257.276C273.153 257.612 272.761 258.1 272.489 258.74C272.233 259.364 272.105 260.116 272.105 260.996C272.105 261.812 272.233 262.54 272.489 263.18C272.745 263.804 273.137 264.3 273.665 264.668C274.193 265.02 274.865 265.196 275.681 265.196C276.497 265.196 277.161 265.036 277.673 264.716C278.185 264.38 278.513 263.972 278.657 263.492H281.729C281.537 264.388 281.169 265.172 280.625 265.844C280.081 266.516 279.385 267.036 278.537 267.404C277.705 267.772 276.753 267.956 275.681 267.956ZM289.912 267.5V254.468H292.552V260.06H292.312C292.312 258.748 292.48 257.652 292.816 256.772C293.152 255.876 293.648 255.204 294.304 254.756C294.976 254.292 295.808 254.06 296.8 254.06H296.944C297.952 254.06 298.784 254.292 299.44 254.756C300.112 255.204 300.608 255.876 300.928 256.772C301.264 257.652 301.432 258.748 301.432 260.06H300.592C300.592 258.748 300.76 257.652 301.096 256.772C301.448 255.876 301.952 255.204 302.608 254.756C303.28 254.292 304.112 254.06 305.104 254.06H305.248C306.256 254.06 307.096 254.292 307.768 254.756C308.44 255.204 308.944 255.876 309.28 256.772C309.632 257.652 309.808 258.748 309.808 260.06V267.5H306.472V259.748C306.472 258.932 306.264 258.284 305.848 257.804C305.432 257.308 304.84 257.06 304.072 257.06C303.304 257.06 302.688 257.316 302.224 257.828C301.76 258.324 301.528 258.996 301.528 259.844V267.5H298.192V259.748C298.192 258.932 297.984 258.284 297.568 257.804C297.152 257.308 296.56 257.06 295.792 257.06C295.024 257.06 294.408 257.316 293.944 257.828C293.48 258.324 293.248 258.996 293.248 259.844V267.5H289.912ZM319.637 267.956C318.485 267.956 317.469 267.772 316.589 267.404C315.709 267.036 314.965 266.54 314.357 265.916C313.749 265.276 313.285 264.556 312.965 263.756C312.661 262.956 312.509 262.124 312.509 261.26V260.756C312.509 259.86 312.669 259.012 312.989 258.212C313.325 257.396 313.797 256.676 314.405 256.052C315.029 255.412 315.781 254.916 316.661 254.564C317.541 254.196 318.533 254.012 319.637 254.012C320.741 254.012 321.733 254.196 322.613 254.564C323.493 254.916 324.237 255.412 324.845 256.052C325.469 256.676 325.941 257.396 326.261 258.212C326.581 259.012 326.741 259.86 326.741 260.756V261.26C326.741 262.124 326.581 262.956 326.261 263.756C325.957 264.556 325.501 265.276 324.893 265.916C324.285 266.54 323.541 267.036 322.661 267.404C321.781 267.772 320.773 267.956 319.637 267.956ZM319.637 265.1C320.453 265.1 321.141 264.924 321.701 264.572C322.261 264.204 322.685 263.716 322.973 263.108C323.261 262.484 323.405 261.78 323.405 260.996C323.405 260.196 323.253 259.492 322.949 258.884C322.661 258.26 322.229 257.772 321.653 257.42C321.093 257.052 320.421 256.868 319.637 256.868C318.853 256.868 318.173 257.052 317.597 257.42C317.037 257.772 316.605 258.26 316.301 258.884C315.997 259.492 315.845 260.196 315.845 260.996C315.845 261.78 315.989 262.484 316.277 263.108C316.581 263.716 317.013 264.204 317.573 264.572C318.133 264.924 318.821 265.1 319.637 265.1ZM329.662 267.5V254.468H332.302V260.06H332.062C332.062 258.732 332.238 257.628 332.59 256.748C332.942 255.852 333.462 255.18 334.15 254.732C334.854 254.284 335.726 254.06 336.766 254.06H336.91C338.462 254.06 339.638 254.564 340.438 255.572C341.238 256.564 341.638 258.052 341.638 260.036V267.5H338.302V259.748C338.302 258.948 338.07 258.3 337.606 257.804C337.158 257.308 336.534 257.06 335.734 257.06C334.918 257.06 334.254 257.316 333.742 257.828C333.246 258.324 332.998 258.996 332.998 259.844V267.5H329.662ZM350.888 267.668C349.688 267.668 348.696 267.516 347.912 267.212C347.144 266.892 346.568 266.364 346.184 265.628C345.8 264.876 345.608 263.868 345.608 262.604L345.632 250.796H348.752L348.728 262.82C348.728 263.46 348.896 263.956 349.232 264.308C349.584 264.644 350.08 264.812 350.72 264.812H352.76V267.668H350.888ZM343.544 256.916V254.468H352.76V256.916H343.544ZM355.56 267.5V249.98H358.896V260.204H358.32C358.32 258.892 358.488 257.78 358.824 256.868C359.16 255.956 359.656 255.26 360.312 254.78C360.984 254.3 361.832 254.06 362.856 254.06H363C364.488 254.06 365.616 254.572 366.384 255.596C367.152 256.62 367.536 258.108 367.536 260.06V267.5H364.2V259.748C364.2 258.916 363.96 258.26 363.48 257.78C363.016 257.3 362.4 257.06 361.632 257.06C360.816 257.06 360.152 257.332 359.64 257.876C359.144 258.404 358.896 259.1 358.896 259.964V267.5H355.56ZM371.291 267.5V249.98H374.627V267.5H371.291ZM369.659 252.476V249.98H374.627V252.476H369.659ZM378.051 272.636V269.78H380.499C380.963 269.78 381.347 269.716 381.651 269.588C381.971 269.476 382.235 269.284 382.443 269.012C382.651 268.756 382.811 268.396 382.923 267.932L386.427 254.468H389.619L385.755 268.652C385.499 269.628 385.139 270.404 384.675 270.98C384.211 271.572 383.611 271.996 382.875 272.252C382.155 272.508 381.259 272.636 380.187 272.636H378.051ZM382.107 267.212V264.572H384.891V267.212H382.107ZM380.979 267.212L376.755 254.468H380.115L384.123 267.212H380.979ZM402.875 267.956C401.739 267.956 400.755 267.764 399.923 267.38C399.107 266.996 398.419 266.484 397.859 265.844C397.315 265.204 396.907 264.484 396.635 263.684C396.363 262.884 396.227 262.068 396.227 261.236V260.78C396.227 259.9 396.363 259.06 396.635 258.26C396.923 257.444 397.347 256.724 397.907 256.1C398.467 255.46 399.155 254.956 399.971 254.588C400.803 254.204 401.763 254.012 402.851 254.012C403.987 254.012 405.003 254.236 405.899 254.684C406.795 255.116 407.507 255.724 408.035 256.508C408.579 257.292 408.883 258.204 408.947 259.244H405.707C405.627 258.572 405.339 258.012 404.843 257.564C404.363 257.116 403.699 256.892 402.851 256.892C402.115 256.892 401.499 257.068 401.003 257.42C400.523 257.772 400.163 258.26 399.923 258.884C399.683 259.492 399.563 260.196 399.563 260.996C399.563 261.764 399.675 262.46 399.899 263.084C400.139 263.708 400.499 264.196 400.979 264.548C401.475 264.9 402.107 265.076 402.875 265.076C403.451 265.076 403.947 264.972 404.363 264.764C404.779 264.556 405.107 264.268 405.347 263.9C405.603 263.532 405.763 263.116 405.827 262.652H409.067C409.003 263.708 408.691 264.636 408.131 265.436C407.587 266.22 406.859 266.836 405.947 267.284C405.051 267.732 404.027 267.956 402.875 267.956ZM418.004 267.956C416.852 267.956 415.836 267.772 414.956 267.404C414.076 267.036 413.332 266.54 412.724 265.916C412.116 265.276 411.652 264.556 411.332 263.756C411.028 262.956 410.876 262.124 410.876 261.26V260.756C410.876 259.86 411.036 259.012 411.356 258.212C411.692 257.396 412.164 256.676 412.772 256.052C413.396 255.412 414.148 254.916 415.028 254.564C415.908 254.196 416.9 254.012 418.004 254.012C419.108 254.012 420.1 254.196 420.98 254.564C421.86 254.916 422.604 255.412 423.212 256.052C423.836 256.676 424.308 257.396 424.628 258.212C424.948 259.012 425.108 259.86 425.108 260.756V261.26C425.108 262.124 424.948 262.956 424.628 263.756C424.324 264.556 423.868 265.276 423.26 265.916C422.652 266.54 421.908 267.036 421.028 267.404C420.148 267.772 419.14 267.956 418.004 267.956ZM418.004 265.1C418.82 265.1 419.508 264.924 420.068 264.572C420.628 264.204 421.052 263.716 421.34 263.108C421.628 262.484 421.772 261.78 421.772 260.996C421.772 260.196 421.62 259.492 421.316 258.884C421.028 258.26 420.596 257.772 420.02 257.42C419.46 257.052 418.788 256.868 418.004 256.868C417.22 256.868 416.54 257.052 415.964 257.42C415.404 257.772 414.972 258.26 414.668 258.884C414.364 259.492 414.212 260.196 414.212 260.996C414.212 261.78 414.356 262.484 414.644 263.108C414.948 263.716 415.38 264.204 415.94 264.572C416.5 264.924 417.188 265.1 418.004 265.1ZM432.757 267.908C430.965 267.908 429.557 267.532 428.533 266.78C427.525 266.012 426.997 264.956 426.949 263.612H429.949C429.997 264.06 430.245 264.468 430.693 264.836C431.141 265.204 431.845 265.388 432.805 265.388C433.605 265.388 434.237 265.244 434.701 264.956C435.181 264.668 435.421 264.276 435.421 263.78C435.421 263.348 435.237 263.004 434.869 262.748C434.517 262.492 433.909 262.324 433.045 262.244L431.893 262.124C430.437 261.964 429.317 261.548 428.533 260.876C427.749 260.204 427.357 259.308 427.357 258.188C427.357 257.292 427.581 256.54 428.029 255.932C428.477 255.324 429.093 254.868 429.877 254.564C430.677 254.244 431.589 254.084 432.613 254.084C434.213 254.084 435.509 254.436 436.501 255.14C437.493 255.844 438.013 256.876 438.061 258.236H435.061C435.029 257.788 434.805 257.404 434.389 257.084C433.973 256.764 433.373 256.604 432.589 256.604C431.885 256.604 431.341 256.74 430.957 257.012C430.573 257.284 430.381 257.636 430.381 258.068C430.381 258.484 430.533 258.804 430.837 259.028C431.157 259.252 431.669 259.404 432.373 259.484L433.525 259.604C435.061 259.764 436.261 260.188 437.125 260.876C438.005 261.564 438.445 262.492 438.445 263.66C438.445 264.524 438.205 265.276 437.725 265.916C437.261 266.54 436.605 267.028 435.757 267.38C434.909 267.732 433.909 267.908 432.757 267.908ZM446.865 267.668C445.665 267.668 444.673 267.516 443.889 267.212C443.121 266.892 442.545 266.364 442.161 265.628C441.777 264.876 441.585 263.868 441.585 262.604L441.609 250.796H444.729L444.705 262.82C444.705 263.46 444.873 263.956 445.209 264.308C445.561 264.644 446.057 264.812 446.697 264.812H448.737V267.668H446.865ZM439.521 256.916V254.468H448.737V256.916H439.521Z" fill="#20252C"></path><rect x="1" y="190" width="517" height="114" rx="9" stroke="#C1D4D4" stroke-width="2"></rect></svg>